<?xml version="1.0" encoding="utf-8"?>
<!-- Generator: Adobe Illustrator 24.0.1, SVG Export Plug-In . SVG Version: 6.00 Build 0)  -->
<svg version="1.1" id="Layer_1" xmlns="http://www.w3.org/2000/svg" xmlns:xlink="http://www.w3.org/1999/xlink" x="0px" y="0px"
	 viewBox="0 0 177.11 234.85" style="enable-background:new 0 0 177.11 234.85;" xml:space="preserve">
<style type="text/css">
	.st0{fill:#356CB5;}
	.st1{fill:#3F50A3;}
	.st2{fill:#3E51A3;}
	.st3{fill:#316EB6;}
	.st4{fill:#2B388A;}
	.st5{fill:#2A3889;}
	.st6{fill:#FFFFFF;stroke:#3E52A3;stroke-width:53.5709;stroke-miterlimit:10;}
	.st7{fill:#2A398A;}
	.st8{fill:none;stroke:#326EB6;stroke-width:53.5709;stroke-miterlimit:10;}
	.st9{fill:#3E52A4;}
	.st10{fill:#304097;}
	.st11{fill:#336DB6;}
</style>
<g>
	<g>
		<path d="M16.46,181.13c0.82,0.64,1.48,1.44,1.97,2.4c0.49,0.96,0.74,1.98,0.75,3.07c0.01,1.38-0.33,2.62-1.02,3.74
			c-0.69,1.11-1.7,1.99-3.04,2.64c-1.33,0.65-2.91,0.98-4.73,1l-10.14,0.1L0,166.9l9.75-0.09c1.85-0.02,3.42,0.27,4.73,0.87
			s2.29,1.41,2.95,2.45c0.66,1.03,1,2.2,1.01,3.5c0.02,1.61-0.41,2.95-1.27,4.01s-2,1.83-3.43,2.31
			C14.73,180.09,15.63,180.49,16.46,181.13z M3.66,178.6l5.97-0.06c1.66-0.02,2.95-0.42,3.85-1.21c0.9-0.79,1.35-1.87,1.33-3.25
			c-0.01-1.38-0.48-2.45-1.4-3.22c-0.92-0.77-2.23-1.15-3.95-1.13l-5.89,0.06L3.66,178.6z M14.18,189.77c0.98-0.84,1.46-2,1.45-3.49
			c-0.01-1.51-0.55-2.69-1.59-3.55c-1.05-0.86-2.44-1.28-4.18-1.27l-6.16,0.06l0.09,9.59l6.28-0.06
			C11.83,191.04,13.2,190.61,14.18,189.77z"/>
		<path d="M27.48,169.52l0.09,9.09l9.91-0.1l0.03,2.92l-9.91,0.09l0.09,9.36l11.08-0.11l0.03,2.92l-14.62,0.14l-0.26-27.22
			l14.62-0.14l0.03,2.92L27.48,169.52z"/>
		<path d="M68.64,180.63c0.83,0.64,1.48,1.44,1.97,2.4c0.49,0.96,0.74,1.98,0.75,3.07c0.01,1.38-0.33,2.62-1.02,3.74
			c-0.69,1.11-1.7,1.99-3.04,2.64c-1.33,0.65-2.91,0.98-4.73,1l-10.14,0.1l-0.26-27.18l9.75-0.09c1.85-0.02,3.42,0.27,4.73,0.87
			s2.29,1.41,2.95,2.45c0.66,1.03,1,2.2,1.01,3.5c0.02,1.61-0.41,2.95-1.27,4.01c-0.86,1.06-2,1.83-3.43,2.31
			C66.9,179.6,67.81,179.99,68.64,180.63z M55.84,178.1l5.97-0.06c1.66-0.02,2.95-0.42,3.85-1.21c0.9-0.79,1.35-1.87,1.33-3.25
			c-0.01-1.38-0.48-2.45-1.4-3.22s-2.23-1.15-3.95-1.13l-5.89,0.06L55.84,178.1z M66.36,189.27c0.98-0.84,1.46-2,1.45-3.48
			c-0.01-1.51-0.55-2.69-1.59-3.55c-1.05-0.86-2.44-1.28-4.18-1.27l-6.16,0.06l0.09,9.59l6.28-0.06
			C64.01,190.54,65.38,190.11,66.36,189.27z"/>
		<path d="M79.66,169.02l0.09,9.09l9.91-0.09l0.03,2.92l-9.91,0.09l0.09,9.36l11.08-0.11l0.03,2.92l-14.62,0.14l-0.26-27.22
			l14.62-0.14l0.03,2.92L79.66,169.02z"/>
		<path d="M112.82,165.82l0.03,2.89l-7.41,0.07l0.23,24.3l-3.55,0.03l-0.23-24.3l-7.45,0.07l-0.03-2.89L112.82,165.82z"/>
		<path d="M133.92,165.62l0.03,2.89l-7.41,0.07l0.23,24.3l-3.55,0.03l-0.23-24.3l-7.45,0.07l-0.03-2.89L133.92,165.62z"/>
		<path d="M141.86,168.43l0.09,9.09l9.91-0.09l0.03,2.92l-9.91,0.09l0.09,9.36l11.08-0.11l0.03,2.92l-14.62,0.14l-0.26-27.22
			l14.62-0.14l0.03,2.92L141.86,168.43z"/>
		<path d="M172.86,192.43l-6.58-11.05l-4.29,0.04l0.11,11.11l-3.55,0.03l-0.26-27.18l8.77-0.08c2.05-0.02,3.79,0.31,5.22,1
			s2.49,1.63,3.21,2.82s1.08,2.55,1.09,4.08c0.02,1.87-0.51,3.53-1.57,4.97c-1.07,1.44-2.68,2.41-4.83,2.89l6.93,11.32
			L172.86,192.43z M161.96,178.57l5.23-0.05c1.92-0.02,3.36-0.51,4.32-1.47c0.95-0.96,1.42-2.23,1.41-3.82
			c-0.02-1.61-0.5-2.85-1.46-3.73c-0.96-0.88-2.41-1.3-4.36-1.28l-5.23,0.05L161.96,178.57z"/>
		<path d="M70.54,205.95l-8.69,17.01l0.1,10.26l-3.55,0.03L58.3,223l-9.05-16.84l3.94-0.04l6.84,13.7l6.58-13.83L70.54,205.95z"/>
		<path d="M79.95,231.55c-2.09-1.16-3.75-2.8-4.98-4.9c-1.23-2.11-1.86-4.49-1.88-7.14c-0.03-2.65,0.56-5.04,1.75-7.17
			s2.82-3.8,4.89-5c2.07-1.2,4.36-1.82,6.89-1.84c2.55-0.02,4.87,0.54,6.96,1.71c2.09,1.16,3.75,2.79,4.96,4.89
			c1.22,2.09,1.84,4.48,1.86,7.16c0.03,2.68-0.55,5.08-1.73,7.19c-1.18,2.12-2.8,3.78-4.87,4.98c-2.07,1.2-4.38,1.82-6.92,1.84
			C84.34,233.28,82.04,232.71,79.95,231.55z M91.95,228.8c1.51-0.9,2.7-2.17,3.55-3.82c0.85-1.65,1.27-3.55,1.25-5.71
			c-0.02-2.18-0.47-4.08-1.36-5.7c-0.89-1.62-2.09-2.86-3.61-3.73c-1.52-0.87-3.24-1.29-5.16-1.28c-1.92,0.02-3.64,0.48-5.14,1.38
			c-1.5,0.9-2.68,2.17-3.53,3.8c-0.86,1.63-1.27,3.54-1.25,5.73c0.02,2.16,0.47,4.05,1.36,5.68s2.09,2.88,3.62,3.75
			c1.53,0.87,3.24,1.29,5.14,1.28C88.73,230.16,90.44,229.7,91.95,228.8z"/>
		<path d="M108.4,205.59l0.17,17.2c0.02,2.42,0.63,4.21,1.83,5.37c1.2,1.16,2.85,1.73,4.95,1.71c2.08-0.02,3.71-0.62,4.88-1.8
			c1.17-1.18,1.75-2.98,1.72-5.4l-0.17-17.2l3.55-0.03l0.16,17.16c0.02,2.26-0.42,4.17-1.31,5.73s-2.11,2.72-3.65,3.49
			c-1.54,0.77-3.27,1.16-5.2,1.18s-3.66-0.34-5.22-1.08c-1.55-0.74-2.79-1.88-3.7-3.42s-1.38-3.44-1.4-5.7l-0.16-17.16L108.4,205.59
			z"/>
	</g>
	<g>
		<path class="st0" d="M112.48,44.63L112.48,44.63c0,24.65-19.98,44.63-44.63,44.63h0v44.63h44.63c24.65,0,44.63-19.98,44.63-44.63
			v0C157.11,64.61,137.13,44.63,112.48,44.63z"/>
		<path class="st1" d="M112.48,44.63V0H23.22v44.63c0,24.65,19.98,44.63,44.63,44.63V44.63H112.48z"/>
	</g>
</g>
<g>
	<g>
		<path d="M-765.3,211.8l-6.2-10.64h-4.11v10.64h-3.4v-26.03h8.4c1.97,0,3.63,0.34,4.99,1.01c1.36,0.67,2.37,1.58,3.04,2.73
			c0.67,1.15,1.01,2.45,1.01,3.92c0,1.79-0.52,3.37-1.55,4.74c-1.03,1.37-2.58,2.28-4.65,2.73l6.54,10.9H-765.3z M-775.61,198.44h5
			c1.84,0,3.22-0.45,4.15-1.36c0.92-0.91,1.38-2.12,1.38-3.64c0-1.54-0.45-2.74-1.36-3.58c-0.91-0.85-2.3-1.27-4.16-1.27h-5V198.44z
			"/>
		<path d="M-752.9,188.54v8.7h9.48v2.8h-9.48V209h10.6v2.8h-14v-26.06h14v2.8H-752.9z"/>
		<path d="M-736.7,191.92c1.14-2.03,2.71-3.62,4.69-4.76c1.98-1.14,4.18-1.72,6.59-1.72c2.84,0,5.31,0.69,7.43,2.05
			c2.12,1.37,3.66,3.31,4.63,5.83h-4.07c-0.72-1.57-1.76-2.78-3.12-3.62c-1.36-0.85-2.98-1.27-4.87-1.27
			c-1.82,0-3.45,0.42-4.89,1.27c-1.44,0.85-2.58,2.05-3.4,3.6s-1.23,3.38-1.23,5.47c0,2.07,0.41,3.88,1.23,5.43s1.95,2.76,3.4,3.6
			s3.07,1.27,4.89,1.27c1.89,0,3.52-0.42,4.87-1.25s2.4-2.04,3.12-3.6h4.07c-0.97,2.49-2.51,4.41-4.63,5.77
			c-2.12,1.36-4.59,2.03-7.43,2.03c-2.41,0-4.61-0.57-6.59-1.7c-1.98-1.13-3.54-2.71-4.69-4.72c-1.15-2.02-1.72-4.29-1.72-6.83
			S-737.84,193.95-736.7,191.92z"/>
		<path d="M-694.62,211.8l-6.2-10.64h-4.11v10.64h-3.4v-26.03h8.4c1.97,0,3.63,0.34,4.99,1.01c1.36,0.67,2.37,1.58,3.04,2.73
			c0.67,1.15,1.01,2.45,1.01,3.92c0,1.79-0.52,3.37-1.55,4.74c-1.03,1.37-2.58,2.28-4.65,2.73l6.54,10.9H-694.62z M-704.92,198.44h5
			c1.84,0,3.22-0.45,4.15-1.36c0.92-0.91,1.38-2.12,1.38-3.64c0-1.54-0.45-2.74-1.36-3.58c-0.91-0.85-2.3-1.27-4.16-1.27h-5V198.44z
			"/>
		<path d="M-682.3,185.78v16.47c0,2.31,0.57,4.03,1.7,5.15s2.71,1.68,4.72,1.68c1.99,0,3.55-0.56,4.69-1.68s1.7-2.84,1.7-5.15
			v-16.47h3.4v16.43c0,2.17-0.44,3.99-1.31,5.47c-0.87,1.48-2.05,2.58-3.53,3.3c-1.48,0.72-3.14,1.08-4.98,1.08
			c-1.84,0-3.5-0.36-4.99-1.08c-1.48-0.72-2.65-1.82-3.51-3.3c-0.86-1.48-1.29-3.3-1.29-5.47v-16.43H-682.3z"/>
		<path d="M-657.02,185.78v26.03h-3.4v-26.03H-657.02z"/>
		<path d="M-635.21,185.78v2.76h-7.09v23.26h-3.4v-23.26h-7.13v-2.76H-635.21z"/>
		<path d="M-604.63,185.97v25.84h-3.4v-19.27l-8.59,19.27h-2.39l-8.62-19.3v19.3h-3.4v-25.84h3.66l9.56,21.36l9.56-21.36H-604.63z"
			/>
		<path d="M-595.48,188.54v8.7h9.48v2.8h-9.48V209h10.6v2.8h-14v-26.06h14v2.8H-595.48z"/>
		<path d="M-559.26,211.8h-3.4l-13.67-20.72v20.72h-3.4v-26.06h3.4l13.67,20.69v-20.69h3.4V211.8z"/>
		<path d="M-537.46,185.78v2.76h-7.09v23.26h-3.4v-23.26h-7.13v-2.76H-537.46z"/>
		<path d="M-753.13,221.52v25.84h-3.4v-19.27l-8.59,19.27h-2.39l-8.62-19.3v19.3h-3.4v-25.84h3.66l9.56,21.36l9.56-21.36H-753.13z"
			/>
		<path d="M-732,241.57h-11.35l-2.09,5.79h-3.58l9.41-25.88h3.92l9.37,25.88h-3.58L-732,241.57z M-732.97,238.81l-4.7-13.14
			l-4.71,13.14H-732.97z"/>
		<path d="M-701.75,247.36h-3.4l-13.67-20.72v20.72h-3.4V221.3h3.4l13.67,20.69V221.3h3.4V247.36z"/>
		<path d="M-680.58,241.57h-11.35l-2.09,5.79h-3.58l9.41-25.88h3.92l9.37,25.88h-3.58L-680.58,241.57z M-681.55,238.81l-4.7-13.14
			l-4.71,13.14H-681.55z"/>
		<path d="M-651.08,228.88c-0.72-1.52-1.77-2.69-3.14-3.53s-2.96-1.25-4.78-1.25c-1.82,0-3.45,0.42-4.91,1.25s-2.6,2.03-3.44,3.58
			c-0.83,1.56-1.25,3.36-1.25,5.4s0.42,3.83,1.25,5.38c0.83,1.54,1.98,2.73,3.44,3.57s3.09,1.25,4.91,1.25
			c2.54,0,4.63-0.76,6.27-2.28c1.64-1.52,2.6-3.57,2.88-6.16h-10.38v-2.76h14v2.61c-0.2,2.14-0.87,4.1-2.02,5.88
			c-1.15,1.78-2.65,3.19-4.52,4.22s-3.95,1.55-6.24,1.55c-2.42,0-4.62-0.57-6.61-1.7c-1.99-1.13-3.57-2.71-4.72-4.72
			s-1.74-4.29-1.74-6.83s0.58-4.82,1.74-6.85c1.16-2.03,2.73-3.61,4.72-4.74c1.99-1.13,4.19-1.7,6.61-1.7
			c2.76,0,5.21,0.68,7.34,2.05c2.13,1.37,3.68,3.3,4.65,5.79H-651.08z"/>
		<path d="M-638.35,224.1v8.7h9.48v2.8h-9.48v8.96h10.6v2.8h-14V221.3h14v2.8H-638.35z"/>
		<path d="M-596.19,221.52v25.84h-3.4v-19.27l-8.59,19.27h-2.39l-8.62-19.3v19.3h-3.4v-25.84h3.66l9.56,21.36l9.56-21.36H-596.19z"
			/>
		<path d="M-587.04,224.1v8.7h9.48v2.8h-9.48v8.96h10.6v2.8h-14V221.3h14v2.8H-587.04z"/>
		<path d="M-550.82,247.36h-3.4l-13.67-20.72v20.72h-3.4V221.3h3.4l13.67,20.69V221.3h3.4V247.36z"/>
		<path d="M-529.02,221.33v2.76h-7.09v23.26h-3.4V224.1h-7.13v-2.76H-529.02z"/>
	</g>
	<path class="st2" d="M-684.6,48.73C-684.6,21.82-662.78,0-635.87,0c26.91,0,48.73,21.82,48.73,48.73"/>
	<path class="st3" d="M-689.02,96.64c-26.91,0-48.73-21.82-48.73-48.73s21.82-48.73,48.73-48.73"/>
	<path class="st2" d="M-640.29,103.81c0,26.91-21.82,48.73-48.73,48.73c-26.91,0-48.73-21.82-48.73-48.73"/>
	<path class="st4" d="M-635.87,55.08c26.91,0,48.73,21.82,48.73,48.73s-21.82,48.73-48.73,48.73"/>
</g>
<g>
	<g>
		<path d="M-781.7-90.35c1.23-2.19,2.92-3.9,5.05-5.13c2.13-1.23,4.5-1.85,7.1-1.85c3.06,0,5.73,0.74,8.01,2.21
			c2.28,1.48,3.94,3.57,4.99,6.28h-4.39c-0.78-1.69-1.9-2.99-3.36-3.9c-1.46-0.91-3.21-1.37-5.25-1.37c-1.96,0-3.72,0.46-5.27,1.37
			c-1.56,0.91-2.78,2.21-3.66,3.88s-1.33,3.64-1.33,5.9c0,2.23,0.44,4.18,1.33,5.86s2.11,2.97,3.66,3.88
			c1.56,0.91,3.31,1.37,5.27,1.37c2.04,0,3.79-0.45,5.25-1.35c1.46-0.9,2.58-2.19,3.36-3.88h4.39c-1.05,2.68-2.71,4.76-4.99,6.22
			c-2.28,1.46-4.95,2.19-8.01,2.19c-2.6,0-4.97-0.61-7.1-1.83c-2.13-1.22-3.82-2.92-5.05-5.09c-1.23-2.17-1.85-4.63-1.85-7.37
			C-783.55-85.7-782.94-88.16-781.7-90.35z"/>
		<path d="M-745.52-70.46c-2.15-1.22-3.84-2.92-5.09-5.11c-1.25-2.19-1.87-4.65-1.87-7.39c0-2.74,0.62-5.2,1.87-7.39
			c1.25-2.19,2.94-3.89,5.09-5.11c2.15-1.22,4.52-1.83,7.12-1.83c2.63,0,5.02,0.61,7.16,1.83c2.15,1.22,3.84,2.92,5.07,5.09
			s1.85,4.64,1.85,7.41s-0.62,5.23-1.85,7.41c-1.23,2.17-2.92,3.87-5.07,5.09c-2.15,1.22-4.54,1.83-7.16,1.83
			C-741-68.63-743.37-69.24-745.52-70.46z M-733.1-73.18c1.57-0.91,2.8-2.21,3.7-3.9s1.35-3.65,1.35-5.88c0-2.25-0.45-4.22-1.35-5.9
			s-2.13-2.97-3.68-3.88c-1.56-0.91-3.33-1.37-5.31-1.37c-1.99,0-3.76,0.46-5.31,1.37c-1.56,0.91-2.78,2.21-3.68,3.88
			c-0.9,1.68-1.35,3.64-1.35,5.9c0,2.23,0.45,4.19,1.35,5.88c0.9,1.69,2.13,2.99,3.7,3.9c1.57,0.91,3.33,1.37,5.29,1.37
			C-736.44-71.81-734.67-72.27-733.1-73.18z"/>
		<path d="M-704.71-68.92l-6.68-11.47h-4.43v11.47h-3.66v-28.05h9.06c2.12,0,3.91,0.36,5.37,1.09c1.46,0.72,2.56,1.71,3.28,2.94
			c0.72,1.23,1.09,2.64,1.09,4.23c0,1.93-0.56,3.64-1.67,5.11c-1.11,1.48-2.78,2.46-5.01,2.94l7.04,11.75H-704.71z M-715.81-83.32
			h5.39c1.99,0,3.48-0.49,4.47-1.47c0.99-0.98,1.49-2.29,1.49-3.92c0-1.66-0.49-2.95-1.47-3.86s-2.48-1.37-4.49-1.37h-5.39V-83.32z"
			/>
		<path d="M-691.34-93.99v9.38h10.22v3.02h-10.22v9.66h11.43v3.02h-15.09v-28.09h15.09v3.02H-691.34z"/>
		<path d="M-644.21-96.97v28.05h-3.66v-12.72h-14.29v12.72h-3.66v-28.05h3.66v12.32h14.29v-12.32H-644.21z"/>
		<path d="M-634.39-96.97v17.75c0,2.5,0.61,4.35,1.83,5.55c1.22,1.21,2.92,1.81,5.09,1.81c2.15,0,3.83-0.6,5.05-1.81
			c1.22-1.21,1.83-3.06,1.83-5.55v-17.75h3.66v17.71c0,2.33-0.47,4.3-1.41,5.9c-0.94,1.6-2.21,2.78-3.8,3.56
			c-1.6,0.78-3.39,1.17-5.37,1.17c-1.99,0-3.78-0.39-5.37-1.17c-1.6-0.78-2.86-1.96-3.78-3.56s-1.39-3.56-1.39-5.9v-17.71H-634.39z"
			/>
		<path d="M-582.35-96.77v27.85h-3.66v-20.77l-9.26,20.77h-2.58l-9.3-20.81v20.81h-3.66v-27.85h3.95l10.3,23.02l10.3-23.02H-582.35z
			"/>
		<path d="M-559.57-75.15h-12.24l-2.25,6.24h-3.86l10.14-27.89h4.23l10.1,27.89h-3.86L-559.57-75.15z M-560.61-78.13l-5.07-14.17
			l-5.07,14.17H-560.61z"/>
		<path d="M-526.96-68.92h-3.66l-14.73-22.34v22.34h-3.66v-28.09h3.66l14.73,22.3v-22.3h3.66V-68.92z"/>
		<path d="M-750.37-30.59l-6.68-11.47h-4.43v11.47h-3.66v-28.05h9.06c2.12,0,3.91,0.36,5.37,1.09s2.56,1.71,3.28,2.94
			c0.72,1.23,1.09,2.64,1.09,4.23c0,1.93-0.56,3.64-1.67,5.11c-1.11,1.48-2.78,2.46-5.01,2.94l7.04,11.75H-750.37z M-761.48-45h5.39
			c1.99,0,3.47-0.49,4.47-1.47c0.99-0.98,1.49-2.29,1.49-3.92c0-1.66-0.49-2.95-1.47-3.86c-0.98-0.91-2.48-1.37-4.49-1.37h-5.39V-45
			z"/>
		<path d="M-737.01-55.66v9.38h10.22v3.02h-10.22v9.66h11.43v3.02h-15.09v-28.09h15.09v3.02H-737.01z"/>
		<path d="M-716.1-31.29c-1.46-0.66-2.61-1.57-3.44-2.74c-0.83-1.17-1.26-2.52-1.29-4.04h3.9c0.13,1.31,0.68,2.42,1.63,3.32
			c0.95,0.9,2.34,1.35,4.17,1.35c1.74,0,3.12-0.44,4.13-1.31c1.01-0.87,1.51-1.99,1.51-3.36c0-1.07-0.29-1.95-0.88-2.62
			c-0.59-0.67-1.33-1.18-2.21-1.53c-0.89-0.35-2.08-0.72-3.58-1.13c-1.85-0.48-3.33-0.97-4.45-1.45c-1.11-0.48-2.07-1.24-2.86-2.27
			c-0.79-1.03-1.19-2.42-1.19-4.17c0-1.53,0.39-2.88,1.17-4.07c0.78-1.18,1.87-2.09,3.28-2.74c1.41-0.64,3.03-0.97,4.85-0.97
			c2.63,0,4.78,0.66,6.46,1.97c1.68,1.32,2.62,3.06,2.84,5.23h-4.03c-0.13-1.07-0.7-2.02-1.69-2.84c-0.99-0.82-2.31-1.23-3.94-1.23
			c-1.53,0-2.78,0.4-3.74,1.19c-0.97,0.79-1.45,1.9-1.45,3.32c0,1.02,0.29,1.85,0.87,2.5s1.29,1.13,2.13,1.47
			c0.84,0.34,2.03,0.72,3.56,1.15c1.85,0.51,3.34,1.01,4.47,1.51c1.13,0.5,2.09,1.26,2.9,2.29c0.8,1.03,1.21,2.43,1.21,4.21
			c0,1.37-0.36,2.66-1.09,3.86c-0.72,1.21-1.8,2.19-3.22,2.94c-1.42,0.75-3.1,1.13-5.03,1.13C-712.98-30.3-714.63-30.63-716.1-31.29
			z"/>
		<path d="M-690.8-32.14c-2.15-1.22-3.84-2.92-5.09-5.11c-1.25-2.19-1.87-4.65-1.87-7.39c0-2.74,0.62-5.2,1.87-7.39
			c1.25-2.19,2.94-3.89,5.09-5.11c2.15-1.22,4.52-1.83,7.12-1.83c2.63,0,5.02,0.61,7.16,1.83c2.15,1.22,3.84,2.92,5.07,5.09
			s1.85,4.64,1.85,7.41s-0.62,5.23-1.85,7.41c-1.23,2.17-2.92,3.87-5.07,5.09c-2.15,1.22-4.54,1.83-7.16,1.83
			C-686.28-30.3-688.65-30.92-690.8-32.14z M-678.38-34.85c1.57-0.91,2.8-2.21,3.7-3.9s1.35-3.65,1.35-5.88
			c0-2.25-0.45-4.22-1.35-5.9s-2.13-2.97-3.68-3.88c-1.56-0.91-3.33-1.37-5.31-1.37c-1.99,0-3.76,0.46-5.31,1.37
			c-1.56,0.91-2.78,2.21-3.68,3.88c-0.9,1.68-1.35,3.64-1.35,5.9c0,2.23,0.45,4.19,1.35,5.88c0.9,1.69,2.13,2.99,3.7,3.9
			c1.57,0.91,3.33,1.37,5.29,1.37C-681.72-33.49-679.95-33.94-678.38-34.85z"/>
		<path d="M-661.18-58.64v17.75c0,2.5,0.61,4.35,1.83,5.55c1.22,1.21,2.92,1.81,5.09,1.81c2.15,0,3.83-0.6,5.05-1.81
			c1.22-1.21,1.83-3.06,1.83-5.55v-17.75h3.66v17.71c0,2.33-0.47,4.3-1.41,5.9c-0.94,1.6-2.21,2.78-3.8,3.56
			c-1.6,0.78-3.39,1.17-5.37,1.17c-1.99,0-3.78-0.39-5.37-1.17c-1.6-0.78-2.86-1.96-3.78-3.56s-1.39-3.56-1.39-5.9v-17.71H-661.18z"
			/>
		<path d="M-622.82-30.59l-6.68-11.47h-4.43v11.47h-3.66v-28.05h9.06c2.12,0,3.91,0.36,5.37,1.09s2.56,1.71,3.28,2.94
			c0.72,1.23,1.09,2.64,1.09,4.23c0,1.93-0.56,3.64-1.67,5.11c-1.11,1.48-2.78,2.46-5.01,2.94l7.04,11.75H-622.82z M-633.93-45h5.39
			c1.99,0,3.47-0.49,4.47-1.47c0.99-0.98,1.49-2.29,1.49-3.92c0-1.66-0.49-2.95-1.47-3.86c-0.98-0.91-2.48-1.37-4.49-1.37h-5.39V-45
			z"/>
		<path d="M-612.64-52.02c1.23-2.19,2.92-3.9,5.05-5.13c2.13-1.23,4.5-1.85,7.1-1.85c3.06,0,5.73,0.74,8.01,2.21
			c2.28,1.48,3.94,3.57,4.99,6.28h-4.39c-0.78-1.69-1.9-2.99-3.36-3.9c-1.46-0.91-3.21-1.37-5.25-1.37c-1.96,0-3.72,0.46-5.27,1.37
			c-1.56,0.91-2.78,2.21-3.66,3.88c-0.89,1.68-1.33,3.64-1.33,5.9c0,2.23,0.44,4.18,1.33,5.86c0.88,1.68,2.11,2.97,3.66,3.88
			s3.31,1.37,5.27,1.37c2.04,0,3.79-0.45,5.25-1.35c1.46-0.9,2.58-2.19,3.36-3.88h4.39c-1.05,2.68-2.71,4.76-4.99,6.22
			c-2.28,1.46-4.95,2.19-8.01,2.19c-2.6,0-4.97-0.61-7.1-1.83c-2.13-1.22-3.82-2.92-5.05-5.09s-1.85-4.63-1.85-7.37
			C-614.49-47.37-613.87-49.83-612.64-52.02z"/>
		<path d="M-578.38-55.66v9.38h10.22v3.02h-10.22v9.66h11.43v3.02h-15.09v-28.09h15.09v3.02H-578.38z"/>
		<path d="M-557.47-31.29c-1.46-0.66-2.61-1.57-3.44-2.74c-0.83-1.17-1.26-2.52-1.29-4.04h3.9c0.13,1.31,0.68,2.42,1.63,3.32
			c0.95,0.9,2.34,1.35,4.17,1.35c1.74,0,3.12-0.44,4.13-1.31c1.01-0.87,1.51-1.99,1.51-3.36c0-1.07-0.29-1.95-0.88-2.62
			c-0.59-0.67-1.33-1.18-2.21-1.53c-0.89-0.35-2.08-0.72-3.58-1.13c-1.85-0.48-3.33-0.97-4.45-1.45c-1.11-0.48-2.07-1.24-2.86-2.27
			c-0.79-1.03-1.19-2.42-1.19-4.17c0-1.53,0.39-2.88,1.17-4.07c0.78-1.18,1.87-2.09,3.28-2.74c1.41-0.64,3.03-0.97,4.85-0.97
			c2.63,0,4.78,0.66,6.46,1.97c1.68,1.32,2.62,3.06,2.84,5.23h-4.03c-0.13-1.07-0.7-2.02-1.69-2.84c-0.99-0.82-2.31-1.23-3.94-1.23
			c-1.53,0-2.78,0.4-3.74,1.19c-0.97,0.79-1.45,1.9-1.45,3.32c0,1.02,0.29,1.85,0.87,2.5s1.29,1.13,2.13,1.47
			c0.84,0.34,2.03,0.72,3.56,1.15c1.85,0.51,3.34,1.01,4.47,1.51c1.13,0.5,2.09,1.26,2.9,2.29c0.8,1.03,1.21,2.43,1.21,4.21
			c0,1.37-0.36,2.66-1.09,3.86c-0.72,1.21-1.8,2.19-3.22,2.94c-1.42,0.75-3.1,1.13-5.03,1.13
			C-554.36-30.3-556.01-30.63-557.47-31.29z"/>
	</g>
	<g>
		<path class="st5" d="M-648.36-245.98h-34.38v-50.74h50.74v34.38C-632.01-253.3-639.33-245.98-648.36-245.98z"/>
		<path class="st5" d="M-632.01-188.84h-35.49c-8.42,0-15.24-6.83-15.24-15.24v-35.49h33.54c9.5,0,17.2,7.7,17.2,17.2V-188.84z"/>
		<path class="st2" d="M-632.01-131.7h-50.74v-35.92c0-8.18,6.63-14.81,14.81-14.81h35.92V-131.7z"/>
		<path class="st2" d="M-688.73-131.7L-688.73-131.7c-28.02,0-50.74-22.72-50.74-50.74v0h36c8.14,0,14.74,6.6,14.74,14.74V-131.7z"
			/>
		<path class="st5" d="M-705.19-188.84h-34.28v0c0-28.02,22.72-50.74,50.74-50.74h0v34.28
			C-688.73-196.21-696.1-188.84-705.19-188.84z"/>
		<path class="st3" d="M-625.94-188.84L-625.94-188.84v-35.77c0-8.27,6.7-14.97,14.97-14.97h35.77v0
			C-575.2-211.56-597.92-188.84-625.94-188.84z"/>
		<path class="st3" d="M-575.2-245.98h-34.93c-8.73,0-15.8-7.08-15.8-15.8v-34.93l0,0C-597.92-296.72-575.2-274-575.2-245.98
			L-575.2-245.98z"/>
	</g>
</g>
<g>
	<g>
		<path d="M746.85-68.92l-11.19-12.4v12.4h-3.55V-96.1h3.55v12.6l11.23-12.6h4.49l-12.32,13.61l12.44,13.57H746.85z"/>
		<path d="M759.02-93.21v9.09h9.91v2.92h-9.91v9.36h11.08v2.92h-14.62v-27.22h14.62v2.93H759.02z"/>
		<path d="M794.51-96.1l-8.85,16.93v10.26h-3.55v-10.26l-8.89-16.93h3.94l6.71,13.77l6.71-13.77H794.51z"/>
		<path d="M824.52-82.51c-1.55,1.5-3.91,2.24-7.08,2.24h-5.23v11.35h-3.55V-96.1h8.78c3.07,0,5.4,0.74,7,2.22
			c1.6,1.48,2.4,3.39,2.4,5.73C826.84-85.88,826.06-84,824.52-82.51z M821.81-84.48c0.94-0.86,1.4-2.08,1.4-3.67
			c0-3.35-1.92-5.03-5.77-5.03h-5.23v9.98h5.23C819.41-83.19,820.87-83.62,821.81-84.48z"/>
		<path d="M834.79-93.21v9.09h9.91v2.92h-9.91v9.36h11.08v2.92h-14.62v-27.22h14.62v2.93H834.79z"/>
		<path d="M865.56-68.92l-6.47-11.12h-4.29v11.12h-3.55V-96.1h8.77c2.05,0,3.79,0.35,5.21,1.05c1.42,0.7,2.48,1.65,3.18,2.85
			c0.7,1.2,1.05,2.56,1.05,4.1c0,1.87-0.54,3.52-1.62,4.95s-2.7,2.38-4.86,2.85l6.83,11.39H865.56z M854.8-82.88h5.23
			c1.92,0,3.37-0.47,4.33-1.42c0.96-0.95,1.44-2.22,1.44-3.8c0-1.61-0.47-2.86-1.42-3.74s-2.4-1.33-4.35-1.33h-5.23V-82.88z"/>
		<path d="M890.33-96.1v2.89h-11.82v9.17h9.59v2.89h-9.59v12.25h-3.55V-96.1H890.33z"/>
		<path d="M900.04-70.42c-2.08-1.18-3.72-2.83-4.93-4.95c-1.21-2.12-1.81-4.5-1.81-7.16s0.6-5.04,1.81-7.16s2.85-3.77,4.93-4.95
			c2.08-1.18,4.38-1.77,6.9-1.77c2.55,0,4.86,0.59,6.94,1.77c2.08,1.18,3.72,2.83,4.91,4.93c1.2,2.11,1.79,4.5,1.79,7.18
			c0,2.68-0.6,5.07-1.79,7.18c-1.2,2.11-2.83,3.75-4.91,4.93c-2.08,1.18-4.39,1.78-6.94,1.78
			C904.42-68.64,902.12-69.23,900.04-70.42z M912.07-73.05c1.52-0.88,2.72-2.15,3.59-3.78c0.87-1.64,1.31-3.54,1.31-5.69
			c0-2.18-0.44-4.09-1.31-5.71c-0.87-1.62-2.06-2.88-3.57-3.76c-1.51-0.88-3.22-1.33-5.15-1.33c-1.92,0-3.64,0.44-5.15,1.33
			c-1.51,0.88-2.7,2.14-3.57,3.76s-1.31,3.53-1.31,5.71c0,2.16,0.44,4.06,1.31,5.69s2.07,2.9,3.59,3.78s3.23,1.33,5.13,1.33
			C908.84-71.72,910.55-72.17,912.07-73.05z"/>
		<path d="M939.59-68.92l-6.47-11.12h-4.29v11.12h-3.55V-96.1h8.77c2.05,0,3.79,0.35,5.21,1.05c1.42,0.7,2.48,1.65,3.18,2.85
			c0.7,1.2,1.05,2.56,1.05,4.1c0,1.87-0.54,3.52-1.62,4.95c-1.08,1.43-2.7,2.38-4.86,2.85l6.82,11.39H939.59z M928.82-82.88h5.23
			c1.92,0,3.37-0.47,4.33-1.42c0.96-0.95,1.44-2.22,1.44-3.8c0-1.61-0.47-2.86-1.42-3.74c-0.95-0.88-2.4-1.33-4.35-1.33h-5.23
			V-82.88z"/>
		<path d="M976.56-95.9v26.99h-3.55v-20.12l-8.97,20.12h-2.5l-9.01-20.16v20.16h-3.55V-95.9h3.82l9.98,22.31l9.98-22.31H976.56z"/>
		<path d="M998.63-74.96h-11.86l-2.18,6.04h-3.74l9.83-27.03h4.09l9.79,27.03h-3.74L998.63-74.96z M997.62-77.85l-4.91-13.73
			l-4.91,13.73H997.62z"/>
		<path d="M1030.22-68.92h-3.55l-14.27-21.64v21.64h-3.55v-27.22h3.55l14.27,21.61v-21.61h3.55V-68.92z"/>
		<path d="M1036.73-89.68c1.2-2.12,2.83-3.78,4.89-4.97c2.07-1.2,4.36-1.79,6.88-1.79c2.96,0,5.55,0.72,7.76,2.15
			c2.21,1.43,3.82,3.46,4.84,6.08h-4.25c-0.75-1.64-1.84-2.9-3.26-3.78c-1.42-0.88-3.11-1.33-5.09-1.33c-1.9,0-3.6,0.44-5.11,1.33
			c-1.51,0.88-2.69,2.14-3.55,3.76c-0.86,1.62-1.29,3.53-1.29,5.71c0,2.16,0.43,4.05,1.29,5.67c0.86,1.62,2.04,2.88,3.55,3.76
			s3.21,1.33,5.11,1.33c1.97,0,3.67-0.43,5.09-1.31s2.5-2.13,3.26-3.76h4.25c-1.01,2.6-2.63,4.61-4.84,6.03
			c-2.21,1.42-4.8,2.13-7.76,2.13c-2.52,0-4.82-0.59-6.88-1.78c-2.07-1.18-3.7-2.83-4.89-4.93c-1.2-2.11-1.79-4.48-1.79-7.14
			S1035.54-87.56,1036.73-89.68z"/>
		<path d="M1069.92-93.21v9.09h9.91v2.92h-9.91v9.36H1081v2.92h-14.62v-27.22H1081v2.93H1069.92z"/>
		<path d="M809.78-58.1v27.18h-3.55V-58.1H809.78z"/>
		<path d="M837.19-30.92h-3.55l-14.27-21.64v21.64h-3.55v-27.22h3.55l14.27,21.61v-21.61h3.55V-30.92z"/>
		<path d="M859.4-56.44c2.17,1.11,3.83,2.68,4.99,4.74c1.16,2.05,1.74,4.47,1.74,7.25c0,2.78-0.58,5.19-1.74,7.23
			c-1.16,2.04-2.82,3.6-4.99,4.68c-2.17,1.08-4.74,1.62-7.7,1.62h-8.46V-58.1h8.46C854.66-58.1,857.23-57.55,859.4-56.44z
			 M859.73-36.63c1.85-1.86,2.77-4.47,2.77-7.82c0-3.38-0.93-6.02-2.79-7.92c-1.86-1.9-4.53-2.85-8.02-2.85h-4.91v21.37h4.91
			C855.21-33.84,857.89-34.77,859.73-36.63z"/>
		<path d="M874.36-58.1v27.18h-3.55V-58.1H874.36z"/>
		<path d="M880.87-51.68c1.2-2.12,2.83-3.78,4.89-4.97c2.07-1.2,4.36-1.79,6.88-1.79c2.96,0,5.55,0.72,7.76,2.15
			c2.21,1.43,3.82,3.46,4.84,6.08h-4.25c-0.75-1.64-1.84-2.9-3.26-3.78c-1.42-0.88-3.11-1.33-5.09-1.33c-1.9,0-3.6,0.44-5.11,1.33
			c-1.51,0.88-2.69,2.14-3.55,3.76c-0.86,1.62-1.29,3.53-1.29,5.71c0,2.16,0.43,4.05,1.29,5.67c0.86,1.62,2.04,2.88,3.55,3.76
			c1.51,0.88,3.21,1.33,5.11,1.33c1.98,0,3.67-0.43,5.09-1.31c1.42-0.87,2.5-2.13,3.26-3.76h4.25c-1.01,2.6-2.63,4.61-4.84,6.03
			c-2.21,1.42-4.8,2.13-7.76,2.13c-2.52,0-4.82-0.59-6.88-1.78c-2.07-1.18-3.7-2.83-4.89-4.93c-1.2-2.11-1.79-4.48-1.79-7.14
			S879.67-49.56,880.87-51.68z"/>
		<path d="M926.58-36.96h-11.86l-2.18,6.04h-3.74l9.83-27.03h4.09l9.79,27.03h-3.74L926.58-36.96z M925.56-39.85l-4.91-13.73
			l-4.91,13.73H925.56z"/>
		<path d="M953.53-58.1v2.89h-7.41v24.3h-3.55v-24.3h-7.45v-2.89H953.53z"/>
		<path d="M963.32-32.42c-2.08-1.18-3.72-2.83-4.93-4.95c-1.21-2.12-1.81-4.5-1.81-7.16s0.61-5.04,1.81-7.16s2.85-3.77,4.93-4.95
			c2.08-1.18,4.38-1.77,6.9-1.77c2.55,0,4.86,0.59,6.94,1.77c2.08,1.18,3.72,2.83,4.91,4.93c1.2,2.11,1.79,4.5,1.79,7.18
			c0,2.68-0.6,5.07-1.79,7.18c-1.2,2.11-2.83,3.75-4.91,4.93c-2.08,1.18-4.39,1.78-6.94,1.78C967.7-30.64,965.4-31.23,963.32-32.42z
			 M975.35-35.05c1.52-0.88,2.72-2.15,3.59-3.78s1.31-3.54,1.31-5.69c0-2.18-0.44-4.09-1.31-5.71s-2.06-2.88-3.57-3.76
			c-1.51-0.88-3.22-1.33-5.15-1.33s-3.64,0.44-5.15,1.33c-1.51,0.88-2.7,2.14-3.57,3.76s-1.31,3.53-1.31,5.71
			c0,2.16,0.43,4.06,1.31,5.69s2.07,2.9,3.59,3.78s3.23,1.33,5.13,1.33S973.83-34.17,975.35-35.05z"/>
		<path d="M1002.86-30.92l-6.47-11.12h-4.29v11.12h-3.55V-58.1h8.78c2.05,0,3.79,0.35,5.21,1.05s2.48,1.65,3.18,2.85
			c0.7,1.2,1.05,2.56,1.05,4.1c0,1.87-0.54,3.52-1.62,4.95s-2.7,2.38-4.86,2.85l6.83,11.39H1002.86z M992.1-44.88h5.23
			c1.92,0,3.37-0.47,4.33-1.42c0.96-0.95,1.44-2.22,1.44-3.8c0-1.61-0.47-2.86-1.42-3.74s-2.4-1.33-4.35-1.33h-5.23V-44.88z"/>
	</g>
	<g>
		<path class="st6" d="M885.92-197.78c37.54,0,67.97,30.43,67.97,67.97"/>
		<rect x="844.03" y="-171.7" class="st7" width="41.88" height="41.88"/>
		<rect x="844.03" y="-266.57" class="st7" width="41.88" height="41.88"/>
		<path class="st8" d="M953.88-265.74c0,37.54-30.43,67.97-67.97,67.97"/>
		<path class="st2" d="M844.03-171.7h41.88v-52.84C862.78-224.53,844.03-205.78,844.03-171.7z"/>
	</g>
</g>
<g>
	<path class="st2" d="M-380.28-0.81c21.47,0,38.88,17.41,38.88,38.88s-17.41,38.88-38.88,38.88"/>
	<path class="st5" d="M-302.53-0.81c-21.47,0-38.88,17.41-38.88,38.88s17.41,38.88,38.88,38.88"/>
	<path class="st5" d="M-380.28,158.77c0-21.47,17.41-38.88,38.88-38.88s38.88,17.41,38.88,38.88"/>
	<path class="st3" d="M-380.28,81.02c0,21.47,17.41,38.88,38.88,38.88s38.88-17.41,38.88-38.88"/>
	<path class="st9" d="M-299.03,81.02c21.47,0,38.88,17.41,38.88,38.88s-17.41,38.88-38.88,38.88"/>
	<path class="st10" d="M-221.28,81.02c-21.47,0-38.88,17.41-38.88,38.88s17.41,38.88,38.88,38.88"/>
	<path class="st10" d="M-299.03,76.94c0-21.47,17.41-38.88,38.88-38.88s38.88,17.41,38.88,38.88"/>
	<path class="st11" d="M-299.03-0.81c0,21.47,17.41,38.88,38.88,38.88s38.88-17.41,38.88-38.88"/>
</g>
</svg>
