<svg width="400" height="400" viewBox="0 0 400 400" fill="none" xmlns="http://www.w3.org/2000/svg">
<g clip-path="url(#clip0_2_2)">
<rect width="400" height="400" fill="white"/>
<path d="M214.032 138.263H160.437V62H239.536V113.674C239.536 127.246 228.125 138.263 214.032 138.263Z" fill="#2A3889"/>
<path d="M239.536 224.146H184.21C171.084 224.146 160.452 213.881 160.452 201.24V147.883H212.738C227.548 147.883 239.551 159.456 239.551 173.735V224.146H239.536Z" fill="#2A3889"/>
<path d="M239.536 310.014H160.437V256.025C160.437 243.731 170.772 233.766 183.524 233.766H239.52V310.014H239.536Z" fill="#3E51A3"/>
<path d="M151.099 310.014C107.418 310.014 72 275.865 72 233.751H128.121C140.81 233.751 151.099 243.671 151.099 255.905V310.014Z" fill="#3E51A3"/>
<path d="M125.439 224.146H72C72 182.032 107.418 147.883 151.099 147.883V199.407C151.099 213.069 139.61 224.146 125.439 224.146Z" fill="#2A3889"/>
<path d="M248.983 224.146V170.383C248.983 157.953 259.427 147.883 272.32 147.883H328.082C328.082 189.998 292.679 224.146 248.983 224.146Z" fill="#316EB6"/>
<path d="M328.082 138.263H273.629C260.02 138.263 248.998 127.622 248.998 114.516V62C292.679 62 328.082 96.1487 328.082 138.263Z" fill="#316EB6"/>
</g>
<defs>
<clipPath id="clip0_2_2">
<rect width="400" height="400" fill="white"/>
</clipPath>
</defs>
</svg>
