<?xml version="1.0" encoding="utf-8"?>
<!-- Generator: Adobe Illustrator 24.0.1, SVG Export Plug-In . SVG Version: 6.00 Build 0)  -->
<svg version="1.1" id="Layer_1" xmlns="http://www.w3.org/2000/svg" xmlns:xlink="http://www.w3.org/1999/xlink" x="0px" y="0px"
	 viewBox="0 0 348.89 235.98" style="enable-background:new 0 0 348.89 235.98;" xml:space="preserve">
<style type="text/css">
	.st0{fill:#356CB5;}
	.st1{fill:#3F50A3;}
	.st2{fill:#3E51A3;}
	.st3{fill:#316EB6;}
	.st4{fill:#2B388A;}
	.st5{fill:#2A3889;}
	.st6{fill:#FFFFFF;stroke:#3E52A3;stroke-width:53.5709;stroke-miterlimit:10;}
	.st7{fill:#2A398A;}
	.st8{fill:none;stroke:#326EB6;stroke-width:53.5709;stroke-miterlimit:10;}
	.st9{fill:#3E52A4;}
	.st10{fill:#304097;}
	.st11{fill:#336DB6;}
</style>
<g>
	<g>
		<path d="M-715.65,447.7c0.82,0.64,1.48,1.44,1.97,2.4c0.49,0.96,0.74,1.98,0.75,3.07c0.01,1.38-0.33,2.62-1.02,3.74
			c-0.69,1.11-1.7,1.99-3.04,2.64c-1.33,0.65-2.91,0.98-4.73,1l-10.14,0.1l-0.26-27.18l9.75-0.09c1.85-0.02,3.42,0.27,4.73,0.87
			s2.29,1.41,2.95,2.45c0.66,1.03,1,2.2,1.01,3.5c0.02,1.61-0.41,2.95-1.27,4.01s-2,1.83-3.43,2.31
			C-717.38,446.66-716.47,447.06-715.65,447.7z M-728.45,445.17l5.97-0.06c1.66-0.02,2.95-0.42,3.85-1.21
			c0.9-0.79,1.35-1.87,1.33-3.25c-0.01-1.38-0.48-2.45-1.4-3.22c-0.92-0.77-2.23-1.15-3.95-1.13l-5.89,0.06L-728.45,445.17z
			 M-717.93,456.34c0.98-0.84,1.46-2,1.45-3.49c-0.01-1.51-0.55-2.69-1.59-3.55c-1.05-0.86-2.44-1.28-4.18-1.27l-6.16,0.06
			l0.09,9.59l6.28-0.06C-720.28,457.61-718.91,457.18-717.93,456.34z"/>
		<path d="M-704.63,436.09l0.09,9.09l9.91-0.1l0.03,2.92l-9.91,0.09l0.09,9.36l11.08-0.11l0.03,2.92l-14.62,0.14l-0.26-27.22
			l14.62-0.14l0.03,2.92L-704.63,436.09z"/>
		<path d="M-663.47,447.2c0.83,0.64,1.48,1.44,1.97,2.4c0.49,0.96,0.74,1.98,0.75,3.07c0.01,1.38-0.33,2.62-1.02,3.74
			c-0.69,1.11-1.7,1.99-3.04,2.64c-1.33,0.65-2.91,0.98-4.73,1l-10.14,0.1l-0.26-27.18l9.75-0.09c1.85-0.02,3.42,0.27,4.73,0.87
			s2.29,1.41,2.95,2.45c0.66,1.03,1,2.2,1.01,3.5c0.02,1.61-0.41,2.95-1.27,4.01c-0.86,1.06-2,1.83-3.43,2.31
			C-665.2,446.16-664.3,446.56-663.47,447.2z M-676.27,444.67l5.97-0.06c1.66-0.02,2.95-0.42,3.85-1.21
			c0.9-0.79,1.35-1.87,1.33-3.25c-0.01-1.38-0.48-2.45-1.4-3.22s-2.23-1.15-3.95-1.13l-5.89,0.06L-676.27,444.67z M-665.75,455.84
			c0.98-0.84,1.46-2,1.45-3.48c-0.01-1.51-0.55-2.69-1.59-3.55c-1.05-0.86-2.44-1.28-4.18-1.27l-6.16,0.06l0.09,9.59l6.28-0.06
			C-668.1,457.11-666.73,456.68-665.75,455.84z"/>
		<path d="M-652.45,435.59l0.09,9.09l9.91-0.09l0.03,2.92l-9.91,0.09l0.09,9.36l11.08-0.11l0.03,2.92l-14.62,0.14l-0.26-27.22
			l14.62-0.14l0.03,2.92L-652.45,435.59z"/>
		<path d="M-619.29,432.39l0.03,2.89l-7.41,0.07l0.23,24.3l-3.55,0.03l-0.23-24.3l-7.45,0.07l-0.03-2.89L-619.29,432.39z"/>
		<path d="M-598.19,432.18l0.03,2.89l-7.41,0.07l0.23,24.3l-3.55,0.03l-0.23-24.3l-7.45,0.07l-0.03-2.89L-598.19,432.18z"/>
		<path d="M-590.25,435l0.09,9.09l9.91-0.09l0.03,2.92l-9.91,0.09l0.09,9.36l11.08-0.11l0.03,2.92l-14.62,0.14l-0.26-27.22
			l14.62-0.14l0.03,2.92L-590.25,435z"/>
		<path d="M-559.24,459l-6.58-11.05l-4.29,0.04l0.11,11.11l-3.55,0.03l-0.26-27.18l8.77-0.08c2.05-0.02,3.79,0.31,5.22,1
			s2.49,1.63,3.21,2.82s1.08,2.55,1.09,4.08c0.02,1.87-0.51,3.53-1.57,4.97c-1.07,1.44-2.68,2.41-4.83,2.89l6.93,11.32L-559.24,459z
			 M-570.14,445.14l5.23-0.05c1.92-0.02,3.36-0.51,4.32-1.47c0.95-0.96,1.42-2.23,1.41-3.82c-0.02-1.61-0.5-2.85-1.46-3.73
			c-0.96-0.88-2.41-1.3-4.36-1.28l-5.23,0.05L-570.14,445.14z"/>
		<path d="M-661.57,472.52l-8.69,17.01l0.1,10.26l-3.55,0.03l-0.1-10.26l-9.05-16.84l3.94-0.04l6.84,13.7l6.58-13.83L-661.57,472.52
			z"/>
		<path d="M-652.16,498.12c-2.09-1.16-3.75-2.8-4.98-4.9c-1.23-2.11-1.86-4.49-1.88-7.14c-0.03-2.65,0.56-5.04,1.75-7.17
			s2.82-3.8,4.89-5c2.07-1.2,4.36-1.82,6.89-1.84c2.55-0.02,4.87,0.54,6.96,1.71c2.09,1.16,3.75,2.79,4.96,4.89
			c1.22,2.09,1.84,4.48,1.86,7.16c0.03,2.68-0.55,5.08-1.73,7.19c-1.18,2.12-2.8,3.78-4.87,4.98c-2.07,1.2-4.38,1.82-6.92,1.84
			C-647.76,499.85-650.07,499.28-652.16,498.12z M-640.15,495.37c1.51-0.9,2.7-2.17,3.55-3.82c0.85-1.65,1.27-3.55,1.25-5.71
			c-0.02-2.18-0.47-4.08-1.36-5.7c-0.89-1.62-2.09-2.86-3.61-3.73c-1.52-0.87-3.24-1.29-5.16-1.28c-1.92,0.02-3.64,0.48-5.14,1.38
			c-1.5,0.9-2.68,2.17-3.53,3.8c-0.86,1.63-1.27,3.54-1.25,5.73c0.02,2.16,0.47,4.05,1.36,5.68s2.09,2.88,3.62,3.75
			c1.53,0.87,3.24,1.29,5.14,1.28C-643.37,496.73-641.67,496.27-640.15,495.37z"/>
		<path d="M-623.7,472.16l0.17,17.2c0.02,2.42,0.63,4.21,1.83,5.37c1.2,1.16,2.85,1.73,4.95,1.71c2.08-0.02,3.71-0.62,4.88-1.8
			c1.17-1.18,1.75-2.98,1.72-5.4l-0.17-17.2l3.55-0.03l0.16,17.16c0.02,2.26-0.42,4.17-1.31,5.73s-2.11,2.72-3.65,3.49
			c-1.54,0.77-3.27,1.16-5.2,1.18s-3.66-0.34-5.22-1.08c-1.55-0.74-2.79-1.88-3.7-3.42s-1.38-3.44-1.4-5.7l-0.16-17.16
			L-623.7,472.16z"/>
	</g>
	<g>
		<path class="st0" d="M-619.63,311.2L-619.63,311.2c0,24.65-19.98,44.63-44.63,44.63h0v44.63h44.63
			c24.65,0,44.63-19.98,44.63-44.63v0C-575,331.18-594.98,311.2-619.63,311.2z"/>
		<path class="st1" d="M-619.63,311.2v-44.63h-89.26v44.63c0,24.65,19.98,44.63,44.63,44.63V311.2H-619.63z"/>
	</g>
</g>
<g>
	<g>
		<path d="M-1497.41,478.37l-6.2-10.64h-4.11v10.64h-3.4v-26.03h8.4c1.97,0,3.63,0.34,4.99,1.01c1.36,0.67,2.37,1.58,3.04,2.73
			c0.67,1.15,1.01,2.45,1.01,3.92c0,1.79-0.52,3.37-1.55,4.74c-1.03,1.37-2.58,2.28-4.65,2.73l6.54,10.9H-1497.41z M-1507.71,465.01
			h5c1.84,0,3.22-0.45,4.15-1.36c0.92-0.91,1.38-2.12,1.38-3.64c0-1.54-0.45-2.74-1.36-3.58c-0.91-0.85-2.3-1.27-4.16-1.27h-5
			V465.01z"/>
		<path d="M-1485.01,455.11v8.7h9.48v2.8h-9.48v8.96h10.6v2.8h-14v-26.06h14v2.8H-1485.01z"/>
		<path d="M-1468.81,458.49c1.14-2.03,2.71-3.62,4.69-4.76c1.98-1.14,4.18-1.72,6.59-1.72c2.84,0,5.31,0.69,7.43,2.05
			c2.12,1.37,3.66,3.31,4.63,5.83h-4.07c-0.72-1.57-1.76-2.78-3.12-3.62c-1.36-0.85-2.98-1.27-4.87-1.27
			c-1.82,0-3.45,0.42-4.89,1.27c-1.44,0.85-2.58,2.05-3.4,3.6s-1.23,3.38-1.23,5.47c0,2.07,0.41,3.88,1.23,5.43s1.95,2.76,3.4,3.6
			s3.07,1.27,4.89,1.27c1.89,0,3.52-0.42,4.87-1.25s2.4-2.04,3.12-3.6h4.07c-0.97,2.49-2.51,4.41-4.63,5.77
			c-2.12,1.36-4.59,2.03-7.43,2.03c-2.41,0-4.61-0.57-6.59-1.7c-1.98-1.13-3.54-2.71-4.69-4.72c-1.15-2.02-1.72-4.29-1.72-6.83
			S-1469.95,460.52-1468.81,458.49z"/>
		<path d="M-1426.72,478.37l-6.2-10.64h-4.11v10.64h-3.4v-26.03h8.4c1.97,0,3.63,0.34,4.99,1.01c1.36,0.67,2.37,1.58,3.04,2.73
			c0.67,1.15,1.01,2.45,1.01,3.92c0,1.79-0.52,3.37-1.55,4.74c-1.03,1.37-2.58,2.28-4.65,2.73l6.54,10.9H-1426.72z M-1437.03,465.01
			h5c1.84,0,3.22-0.45,4.15-1.36c0.92-0.91,1.38-2.12,1.38-3.64c0-1.54-0.45-2.74-1.36-3.58c-0.91-0.85-2.3-1.27-4.16-1.27h-5
			V465.01z"/>
		<path d="M-1414.4,452.35v16.47c0,2.31,0.57,4.03,1.7,5.15s2.71,1.68,4.72,1.68c1.99,0,3.55-0.56,4.69-1.68s1.7-2.84,1.7-5.15
			v-16.47h3.4v16.43c0,2.17-0.44,3.99-1.31,5.47c-0.87,1.48-2.05,2.58-3.53,3.3c-1.48,0.72-3.14,1.08-4.98,1.08
			c-1.84,0-3.5-0.36-4.99-1.08c-1.48-0.72-2.65-1.82-3.51-3.3c-0.86-1.48-1.29-3.3-1.29-5.47v-16.43H-1414.4z"/>
		<path d="M-1389.12,452.35v26.03h-3.4v-26.03H-1389.12z"/>
		<path d="M-1367.32,452.35v2.76h-7.09v23.26h-3.4v-23.26h-7.13v-2.76H-1367.32z"/>
		<path d="M-1336.74,452.54v25.84h-3.4v-19.27l-8.59,19.27h-2.39l-8.62-19.3v19.3h-3.4v-25.84h3.66l9.56,21.36l9.56-21.36H-1336.74z
			"/>
		<path d="M-1327.59,455.11v8.7h9.48v2.8h-9.48v8.96h10.6v2.8h-14v-26.06h14v2.8H-1327.59z"/>
		<path d="M-1291.37,478.37h-3.4l-13.67-20.72v20.72h-3.4v-26.06h3.4l13.67,20.69v-20.69h3.4V478.37z"/>
		<path d="M-1269.56,452.35v2.76h-7.09v23.26h-3.4v-23.26h-7.13v-2.76H-1269.56z"/>
		<path d="M-1485.24,488.09v25.84h-3.4v-19.27l-8.59,19.27h-2.39l-8.62-19.3v19.3h-3.4v-25.84h3.66l9.56,21.36l9.56-21.36H-1485.24z
			"/>
		<path d="M-1464.1,508.14h-11.35l-2.09,5.79h-3.58l9.41-25.88h3.92l9.37,25.88h-3.58L-1464.1,508.14z M-1465.07,505.38l-4.7-13.14
			l-4.71,13.14H-1465.07z"/>
		<path d="M-1433.86,513.93h-3.4l-13.67-20.72v20.72h-3.4v-26.06h3.4l13.67,20.69v-20.69h3.4V513.93z"/>
		<path d="M-1412.69,508.14h-11.35l-2.09,5.79h-3.58l9.41-25.88h3.92l9.37,25.88h-3.58L-1412.69,508.14z M-1413.66,505.38
			l-4.7-13.14l-4.71,13.14H-1413.66z"/>
		<path d="M-1383.19,495.45c-0.72-1.52-1.77-2.69-3.14-3.53s-2.96-1.25-4.78-1.25c-1.82,0-3.45,0.42-4.91,1.25s-2.6,2.03-3.44,3.58
			c-0.83,1.56-1.25,3.36-1.25,5.4s0.42,3.83,1.25,5.38c0.83,1.54,1.98,2.73,3.44,3.57s3.09,1.25,4.91,1.25
			c2.54,0,4.63-0.76,6.27-2.28c1.64-1.52,2.6-3.57,2.88-6.16h-10.38v-2.76h14v2.61c-0.2,2.14-0.87,4.1-2.02,5.88
			c-1.15,1.78-2.65,3.19-4.52,4.22c-1.87,1.03-3.95,1.55-6.24,1.55c-2.42,0-4.62-0.57-6.61-1.7c-1.99-1.13-3.57-2.71-4.72-4.72
			s-1.74-4.29-1.74-6.83s0.58-4.82,1.74-6.85c1.16-2.03,2.73-3.61,4.72-4.74c1.99-1.13,4.19-1.7,6.61-1.7
			c2.76,0,5.21,0.68,7.34,2.05c2.13,1.37,3.68,3.3,4.65,5.79H-1383.19z"/>
		<path d="M-1370.45,490.67v8.7h9.48v2.8h-9.48v8.96h10.6v2.8h-14v-26.06h14v2.8H-1370.45z"/>
		<path d="M-1328.3,488.09v25.84h-3.4v-19.27l-8.59,19.27h-2.39l-8.62-19.3v19.3h-3.4v-25.84h3.66l9.56,21.36l9.56-21.36H-1328.3z"
			/>
		<path d="M-1319.15,490.67v8.7h9.48v2.8h-9.48v8.96h10.6v2.8h-14v-26.06h14v2.8H-1319.15z"/>
		<path d="M-1282.93,513.93h-3.4l-13.67-20.72v20.72h-3.4v-26.06h3.4l13.67,20.69v-20.69h3.4V513.93z"/>
		<path d="M-1261.13,487.9v2.76h-7.09v23.26h-3.4v-23.26h-7.13v-2.76H-1261.13z"/>
	</g>
	<path class="st2" d="M-1416.71,315.3c0-26.91,21.82-48.73,48.73-48.73s48.73,21.82,48.73,48.73"/>
	<path class="st3" d="M-1421.12,363.21c-26.91,0-48.73-21.82-48.73-48.73s21.82-48.73,48.73-48.73"/>
	<path class="st2" d="M-1372.4,370.37c0,26.91-21.82,48.73-48.73,48.73c-26.91,0-48.73-21.82-48.73-48.73"/>
	<path class="st4" d="M-1367.98,321.65c26.91,0,48.73,21.82,48.73,48.73s-21.82,48.73-48.73,48.73"/>
</g>
<g>
	<g>
		<path d="M-1513.81,176.22c1.23-2.19,2.92-3.9,5.05-5.13c2.13-1.23,4.5-1.85,7.1-1.85c3.06,0,5.73,0.74,8.01,2.21
			c2.28,1.48,3.94,3.57,4.99,6.28h-4.39c-0.78-1.69-1.9-2.99-3.36-3.9c-1.46-0.91-3.21-1.37-5.25-1.37c-1.96,0-3.72,0.46-5.27,1.37
			c-1.56,0.91-2.78,2.21-3.66,3.88s-1.33,3.64-1.33,5.9c0,2.23,0.44,4.18,1.33,5.86s2.11,2.97,3.66,3.88
			c1.56,0.91,3.31,1.37,5.27,1.37c2.04,0,3.79-0.45,5.25-1.35c1.46-0.9,2.58-2.19,3.36-3.88h4.39c-1.05,2.68-2.71,4.76-4.99,6.22
			c-2.28,1.46-4.95,2.19-8.01,2.19c-2.6,0-4.97-0.61-7.1-1.83c-2.13-1.22-3.82-2.92-5.05-5.09c-1.23-2.17-1.85-4.63-1.85-7.37
			C-1515.66,180.87-1515.04,178.41-1513.81,176.22z"/>
		<path d="M-1477.63,196.1c-2.15-1.22-3.84-2.92-5.09-5.11c-1.25-2.19-1.87-4.65-1.87-7.39c0-2.74,0.62-5.2,1.87-7.39
			c1.25-2.19,2.94-3.89,5.09-5.11c2.15-1.22,4.52-1.83,7.12-1.83c2.63,0,5.02,0.61,7.16,1.83c2.15,1.22,3.84,2.92,5.07,5.09
			s1.85,4.64,1.85,7.41s-0.62,5.23-1.85,7.41c-1.23,2.17-2.92,3.87-5.07,5.09c-2.15,1.22-4.54,1.83-7.16,1.83
			C-1473.11,197.94-1475.48,197.33-1477.63,196.1z M-1465.21,193.39c1.57-0.91,2.8-2.21,3.7-3.9s1.35-3.65,1.35-5.88
			c0-2.25-0.45-4.22-1.35-5.9s-2.13-2.97-3.68-3.88c-1.56-0.91-3.33-1.37-5.31-1.37c-1.99,0-3.76,0.46-5.31,1.37
			c-1.56,0.91-2.78,2.21-3.68,3.88c-0.9,1.68-1.35,3.64-1.35,5.9c0,2.23,0.45,4.19,1.35,5.88c0.9,1.69,2.13,2.99,3.7,3.9
			c1.57,0.91,3.33,1.37,5.29,1.37C-1468.54,194.76-1466.78,194.3-1465.21,193.39z"/>
		<path d="M-1436.81,197.65l-6.68-11.47h-4.43v11.47h-3.66V169.6h9.06c2.12,0,3.91,0.36,5.37,1.09c1.46,0.72,2.56,1.71,3.28,2.94
			c0.72,1.23,1.09,2.64,1.09,4.23c0,1.93-0.56,3.64-1.67,5.11c-1.11,1.48-2.78,2.46-5.01,2.94l7.04,11.75H-1436.81z
			 M-1447.92,183.24h5.39c1.99,0,3.48-0.49,4.47-1.47c0.99-0.98,1.49-2.29,1.49-3.92c0-1.66-0.49-2.95-1.47-3.86
			s-2.48-1.37-4.49-1.37h-5.39V183.24z"/>
		<path d="M-1423.45,172.58v9.38h10.22v3.02h-10.22v9.66h11.43v3.02h-15.09v-28.09h15.09v3.02H-1423.45z"/>
		<path d="M-1376.32,169.6v28.05h-3.66v-12.72h-14.29v12.72h-3.66V169.6h3.66v12.32h14.29V169.6H-1376.32z"/>
		<path d="M-1366.5,169.6v17.75c0,2.5,0.61,4.35,1.83,5.55c1.22,1.21,2.92,1.81,5.09,1.81c2.15,0,3.83-0.6,5.05-1.81
			c1.22-1.21,1.83-3.06,1.83-5.55V169.6h3.66v17.71c0,2.33-0.47,4.3-1.41,5.9c-0.94,1.6-2.21,2.78-3.8,3.56
			c-1.6,0.78-3.39,1.17-5.37,1.17c-1.99,0-3.78-0.39-5.37-1.17c-1.6-0.78-2.86-1.96-3.78-3.56s-1.39-3.56-1.39-5.9V169.6H-1366.5z"
			/>
		<path d="M-1314.46,169.8v27.85h-3.66v-20.77l-9.26,20.77h-2.58l-9.3-20.81v20.81h-3.66V169.8h3.95l10.3,23.02l10.3-23.02H-1314.46
			z"/>
		<path d="M-1291.67,191.42h-12.24l-2.25,6.24h-3.86l10.14-27.89h4.23l10.1,27.89h-3.86L-1291.67,191.42z M-1292.72,188.44
			l-5.07-14.17l-5.07,14.17H-1292.72z"/>
		<path d="M-1259.07,197.65h-3.66l-14.73-22.34v22.34h-3.66v-28.09h3.66l14.73,22.3v-22.3h3.66V197.65z"/>
		<path d="M-1482.48,235.98l-6.68-11.47h-4.43v11.47h-3.66v-28.05h9.06c2.12,0,3.91,0.36,5.37,1.09s2.56,1.71,3.28,2.94
			c0.72,1.23,1.09,2.64,1.09,4.23c0,1.93-0.56,3.64-1.67,5.11c-1.11,1.48-2.78,2.46-5.01,2.94l7.04,11.75H-1482.48z
			 M-1493.58,221.57h5.39c1.99,0,3.47-0.49,4.47-1.47c0.99-0.98,1.49-2.29,1.49-3.92c0-1.66-0.49-2.95-1.47-3.86
			c-0.98-0.91-2.48-1.37-4.49-1.37h-5.39V221.57z"/>
		<path d="M-1469.11,210.91v9.38h10.22v3.02h-10.22v9.66h11.43v3.02h-15.09v-28.09h15.09v3.02H-1469.11z"/>
		<path d="M-1448.2,235.28c-1.46-0.66-2.61-1.57-3.44-2.74c-0.83-1.17-1.26-2.52-1.29-4.04h3.9c0.13,1.31,0.68,2.42,1.63,3.32
			c0.95,0.9,2.34,1.35,4.17,1.35c1.74,0,3.12-0.44,4.13-1.31c1.01-0.87,1.51-1.99,1.51-3.36c0-1.07-0.29-1.95-0.88-2.62
			c-0.59-0.67-1.33-1.18-2.21-1.53c-0.89-0.35-2.08-0.72-3.58-1.13c-1.85-0.48-3.33-0.97-4.45-1.45c-1.11-0.48-2.07-1.24-2.86-2.27
			c-0.79-1.03-1.19-2.42-1.19-4.17c0-1.53,0.39-2.88,1.17-4.07c0.78-1.18,1.87-2.09,3.28-2.74c1.41-0.64,3.03-0.97,4.85-0.97
			c2.63,0,4.78,0.66,6.46,1.97c1.68,1.32,2.62,3.06,2.84,5.23h-4.03c-0.13-1.07-0.7-2.02-1.69-2.84c-0.99-0.82-2.31-1.23-3.94-1.23
			c-1.53,0-2.78,0.4-3.74,1.19c-0.97,0.79-1.45,1.9-1.45,3.32c0,1.02,0.29,1.85,0.87,2.5s1.29,1.13,2.13,1.47
			c0.84,0.34,2.03,0.72,3.56,1.15c1.85,0.51,3.34,1.01,4.47,1.51c1.13,0.5,2.09,1.26,2.9,2.29c0.8,1.03,1.21,2.43,1.21,4.21
			c0,1.37-0.36,2.66-1.09,3.86c-0.72,1.21-1.8,2.19-3.22,2.94c-1.42,0.75-3.1,1.13-5.03,1.13
			C-1445.08,236.26-1446.74,235.94-1448.2,235.28z"/>
		<path d="M-1422.91,234.43c-2.15-1.22-3.84-2.92-5.09-5.11c-1.25-2.19-1.87-4.65-1.87-7.39c0-2.74,0.62-5.2,1.87-7.39
			c1.25-2.19,2.94-3.89,5.09-5.11c2.15-1.22,4.52-1.83,7.12-1.83c2.63,0,5.02,0.61,7.16,1.83c2.15,1.22,3.84,2.92,5.07,5.09
			s1.85,4.64,1.85,7.41s-0.62,5.23-1.85,7.41c-1.23,2.17-2.92,3.87-5.07,5.09c-2.15,1.22-4.54,1.83-7.16,1.83
			C-1418.39,236.26-1420.76,235.65-1422.91,234.43z M-1410.49,231.72c1.57-0.91,2.8-2.21,3.7-3.9s1.35-3.65,1.35-5.88
			c0-2.25-0.45-4.22-1.35-5.9s-2.13-2.97-3.68-3.88c-1.56-0.91-3.33-1.37-5.31-1.37c-1.99,0-3.76,0.46-5.31,1.37
			c-1.56,0.91-2.78,2.21-3.68,3.88c-0.9,1.68-1.35,3.64-1.35,5.9c0,2.23,0.45,4.19,1.35,5.88c0.9,1.69,2.13,2.99,3.7,3.9
			c1.57,0.91,3.33,1.37,5.29,1.37C-1413.82,233.08-1412.06,232.63-1410.49,231.72z"/>
		<path d="M-1393.28,207.93v17.75c0,2.5,0.61,4.35,1.83,5.55c1.22,1.21,2.92,1.81,5.09,1.81c2.15,0,3.83-0.6,5.05-1.81
			c1.22-1.21,1.83-3.06,1.83-5.55v-17.75h3.66v17.71c0,2.33-0.47,4.3-1.41,5.9c-0.94,1.6-2.21,2.78-3.8,3.56
			c-1.6,0.78-3.39,1.17-5.37,1.17c-1.99,0-3.78-0.39-5.37-1.17c-1.6-0.78-2.86-1.96-3.78-3.56s-1.39-3.56-1.39-5.9v-17.71H-1393.28z
			"/>
		<path d="M-1354.93,235.98l-6.68-11.47h-4.43v11.47h-3.66v-28.05h9.06c2.12,0,3.91,0.36,5.37,1.09s2.56,1.71,3.28,2.94
			c0.72,1.23,1.09,2.64,1.09,4.23c0,1.93-0.56,3.64-1.67,5.11c-1.11,1.48-2.78,2.46-5.01,2.94l7.04,11.75H-1354.93z
			 M-1366.03,221.57h5.39c1.99,0,3.47-0.49,4.47-1.47c0.99-0.98,1.49-2.29,1.49-3.92c0-1.66-0.49-2.95-1.47-3.86
			c-0.98-0.91-2.48-1.37-4.49-1.37h-5.39V221.57z"/>
		<path d="M-1344.74,214.55c1.23-2.19,2.92-3.9,5.05-5.13c2.13-1.23,4.5-1.85,7.1-1.85c3.06,0,5.73,0.74,8.01,2.21
			c2.28,1.48,3.94,3.57,4.99,6.28h-4.39c-0.78-1.69-1.9-2.99-3.36-3.9c-1.46-0.91-3.21-1.37-5.25-1.37c-1.96,0-3.72,0.46-5.27,1.37
			c-1.56,0.91-2.78,2.21-3.66,3.88c-0.89,1.68-1.33,3.64-1.33,5.9c0,2.23,0.44,4.18,1.33,5.86c0.88,1.68,2.11,2.97,3.66,3.88
			s3.31,1.37,5.27,1.37c2.04,0,3.79-0.45,5.25-1.35c1.46-0.9,2.58-2.19,3.36-3.88h4.39c-1.05,2.68-2.71,4.76-4.99,6.22
			c-2.28,1.46-4.95,2.19-8.01,2.19c-2.6,0-4.97-0.61-7.1-1.83c-2.13-1.22-3.82-2.92-5.05-5.09s-1.85-4.63-1.85-7.37
			C-1346.59,219.2-1345.98,216.74-1344.74,214.55z"/>
		<path d="M-1310.49,210.91v9.38h10.22v3.02h-10.22v9.66h11.43v3.02h-15.09v-28.09h15.09v3.02H-1310.49z"/>
		<path d="M-1289.58,235.28c-1.46-0.66-2.61-1.57-3.44-2.74c-0.83-1.17-1.26-2.52-1.29-4.04h3.9c0.13,1.31,0.68,2.42,1.63,3.32
			c0.95,0.9,2.34,1.35,4.17,1.35c1.74,0,3.12-0.44,4.13-1.31c1.01-0.87,1.51-1.99,1.51-3.36c0-1.07-0.29-1.95-0.88-2.62
			c-0.59-0.67-1.33-1.18-2.21-1.53c-0.89-0.35-2.08-0.72-3.58-1.13c-1.85-0.48-3.33-0.97-4.45-1.45c-1.11-0.48-2.07-1.24-2.86-2.27
			c-0.79-1.03-1.19-2.42-1.19-4.17c0-1.53,0.39-2.88,1.17-4.07c0.78-1.18,1.87-2.09,3.28-2.74c1.41-0.64,3.03-0.97,4.85-0.97
			c2.63,0,4.78,0.66,6.46,1.97c1.68,1.32,2.62,3.06,2.84,5.23h-4.03c-0.13-1.07-0.7-2.02-1.69-2.84c-0.99-0.82-2.31-1.23-3.94-1.23
			c-1.53,0-2.78,0.4-3.74,1.19c-0.97,0.79-1.45,1.9-1.45,3.32c0,1.02,0.29,1.85,0.87,2.5s1.29,1.13,2.13,1.47
			c0.84,0.34,2.03,0.72,3.56,1.15c1.85,0.51,3.34,1.01,4.47,1.51c1.13,0.5,2.09,1.26,2.9,2.29c0.8,1.03,1.21,2.43,1.21,4.21
			c0,1.37-0.36,2.66-1.09,3.86c-0.72,1.21-1.8,2.19-3.22,2.94c-1.42,0.75-3.1,1.13-5.03,1.13
			C-1286.46,236.26-1288.12,235.94-1289.58,235.28z"/>
	</g>
	<g>
		<path class="st5" d="M-1380.47,20.59h-34.38v-50.74h50.74V4.23C-1364.11,13.26-1371.44,20.59-1380.47,20.59z"/>
		<path class="st5" d="M-1364.11,77.73h-35.49c-8.42,0-15.24-6.83-15.24-15.24V26.99h33.54c9.5,0,17.2,7.7,17.2,17.2V77.73z"/>
		<path class="st2" d="M-1364.11,134.86h-50.74V98.94c0-8.18,6.63-14.81,14.81-14.81h35.92V134.86z"/>
		<path class="st2" d="M-1420.84,134.86L-1420.84,134.86c-28.02,0-50.74-22.72-50.74-50.74v0h36c8.14,0,14.74,6.6,14.74,14.74
			V134.86z"/>
		<path class="st5" d="M-1437.3,77.73h-34.28v0c0-28.02,22.72-50.74,50.74-50.74l0,0v34.28
			C-1420.84,70.36-1428.21,77.73-1437.3,77.73z"/>
		<path class="st3" d="M-1358.05,77.73L-1358.05,77.73V41.96c0-8.27,6.7-14.97,14.97-14.97h35.77v0
			C-1307.31,55.01-1330.03,77.73-1358.05,77.73z"/>
		<path class="st3" d="M-1307.31,20.59h-34.93c-8.73,0-15.8-7.08-15.8-15.8v-34.93l0,0C-1330.03-30.15-1307.31-7.43-1307.31,20.59
			L-1307.31,20.59z"/>
	</g>
</g>
<g>
	<g>
		<path d="M14.74,197.65l-11.19-12.4v12.4H0v-27.18h3.55v12.6l11.23-12.6h4.49L6.94,184.08l12.44,13.57H14.74z"/>
		<path d="M26.91,173.36v9.09h9.91v2.92h-9.91v9.36h11.08v2.92H23.36v-27.22h14.62v2.93H26.91z"/>
		<path d="M62.4,170.47l-8.85,16.93v10.26H50V187.4l-8.89-16.93h3.94l6.71,13.77l6.71-13.77H62.4z"/>
		<path d="M92.41,184.06c-1.55,1.5-3.91,2.24-7.08,2.24h-5.23v11.35h-3.55v-27.18h8.78c3.07,0,5.4,0.74,7,2.22
			c1.6,1.48,2.4,3.39,2.4,5.73C94.73,180.69,93.96,182.57,92.41,184.06z M89.7,182.09c0.94-0.86,1.4-2.08,1.4-3.67
			c0-3.35-1.92-5.03-5.77-5.03h-5.23v9.98h5.23C87.31,183.38,88.76,182.95,89.7,182.09z"/>
		<path d="M102.69,173.36v9.09h9.91v2.92h-9.91v9.36h11.08v2.92H99.14v-27.22h14.62v2.93H102.69z"/>
		<path d="M133.46,197.65l-6.47-11.12h-4.29v11.12h-3.55v-27.18h8.77c2.05,0,3.79,0.35,5.21,1.05c1.42,0.7,2.48,1.65,3.18,2.85
			c0.7,1.2,1.05,2.56,1.05,4.1c0,1.87-0.54,3.52-1.62,4.95s-2.7,2.38-4.86,2.85l6.83,11.39H133.46z M122.69,183.69h5.23
			c1.92,0,3.37-0.47,4.33-1.42c0.96-0.95,1.44-2.22,1.44-3.8c0-1.61-0.47-2.86-1.42-3.74s-2.4-1.33-4.35-1.33h-5.23V183.69z"/>
		<path d="M158.22,170.47v2.89H146.4v9.17H156v2.89h-9.59v12.25h-3.55v-27.18H158.22z"/>
		<path d="M167.93,196.15c-2.08-1.18-3.72-2.83-4.93-4.95c-1.21-2.12-1.81-4.5-1.81-7.16s0.6-5.04,1.81-7.16s2.85-3.77,4.93-4.95
			c2.08-1.18,4.38-1.77,6.9-1.77c2.55,0,4.86,0.59,6.94,1.77c2.08,1.18,3.72,2.83,4.91,4.93c1.2,2.11,1.79,4.5,1.79,7.18
			c0,2.68-0.6,5.07-1.79,7.18c-1.2,2.11-2.83,3.75-4.91,4.93c-2.08,1.18-4.39,1.78-6.94,1.78
			C172.31,197.93,170.01,197.34,167.93,196.15z M179.96,193.52c1.52-0.88,2.72-2.15,3.59-3.78c0.87-1.64,1.31-3.54,1.31-5.69
			c0-2.18-0.44-4.09-1.31-5.71c-0.87-1.62-2.06-2.88-3.57-3.76c-1.51-0.88-3.22-1.33-5.15-1.33c-1.92,0-3.64,0.44-5.15,1.33
			c-1.51,0.88-2.7,2.14-3.57,3.76s-1.31,3.53-1.31,5.71c0,2.16,0.44,4.06,1.31,5.69s2.07,2.9,3.59,3.78s3.23,1.33,5.13,1.33
			C176.73,194.85,178.44,194.4,179.96,193.52z"/>
		<path d="M207.48,197.65L201,186.54h-4.29v11.12h-3.55v-27.18h8.77c2.05,0,3.79,0.35,5.21,1.05c1.42,0.7,2.48,1.65,3.18,2.85
			c0.7,1.2,1.05,2.56,1.05,4.1c0,1.87-0.54,3.52-1.62,4.95c-1.08,1.43-2.7,2.38-4.86,2.85l6.82,11.39H207.48z M196.71,183.69h5.23
			c1.92,0,3.37-0.47,4.33-1.42c0.96-0.95,1.44-2.22,1.44-3.8c0-1.61-0.47-2.86-1.42-3.74c-0.95-0.88-2.4-1.33-4.35-1.33h-5.23
			V183.69z"/>
		<path d="M244.45,170.67v26.99h-3.55v-20.12l-8.97,20.12h-2.5l-9.01-20.16v20.16h-3.55v-26.99h3.82l9.98,22.31l9.98-22.31H244.45z"
			/>
		<path d="M266.52,191.61h-11.86l-2.18,6.04h-3.74l9.83-27.03h4.09l9.79,27.03h-3.74L266.52,191.61z M265.51,188.72l-4.91-13.73
			l-4.91,13.73H265.51z"/>
		<path d="M298.11,197.65h-3.55l-14.27-21.64v21.64h-3.55v-27.22h3.55l14.27,21.61v-21.61h3.55V197.65z"/>
		<path d="M304.63,176.89c1.2-2.12,2.83-3.78,4.89-4.97c2.07-1.2,4.36-1.79,6.88-1.79c2.96,0,5.55,0.72,7.76,2.15
			c2.21,1.43,3.82,3.46,4.84,6.08h-4.25c-0.75-1.64-1.84-2.9-3.26-3.78c-1.42-0.88-3.11-1.33-5.09-1.33c-1.9,0-3.6,0.44-5.11,1.33
			c-1.51,0.88-2.69,2.14-3.55,3.76c-0.86,1.62-1.29,3.53-1.29,5.71c0,2.16,0.43,4.05,1.29,5.67c0.86,1.62,2.04,2.88,3.55,3.76
			s3.21,1.33,5.11,1.33c1.97,0,3.67-0.43,5.09-1.31s2.5-2.13,3.26-3.76H329c-1.01,2.6-2.63,4.61-4.84,6.03
			c-2.21,1.42-4.8,2.13-7.76,2.13c-2.52,0-4.82-0.59-6.88-1.78c-2.07-1.18-3.7-2.83-4.89-4.93c-1.2-2.11-1.79-4.48-1.79-7.14
			S303.43,179.01,304.63,176.89z"/>
		<path d="M337.81,173.36v9.09h9.91v2.92h-9.91v9.36h11.08v2.92h-14.62v-27.22h14.62v2.93H337.81z"/>
		<path d="M77.67,208.47v27.18h-3.55v-27.18H77.67z"/>
		<path d="M105.08,235.65h-3.55l-14.27-21.64v21.64h-3.55v-27.22h3.55l14.27,21.61v-21.61h3.55V235.65z"/>
		<path d="M127.29,210.13c2.17,1.11,3.83,2.68,4.99,4.74c1.16,2.05,1.74,4.47,1.74,7.25c0,2.78-0.58,5.19-1.74,7.23
			c-1.16,2.04-2.82,3.6-4.99,4.68c-2.17,1.08-4.74,1.62-7.7,1.62h-8.46v-27.18h8.46C122.56,208.47,125.12,209.02,127.29,210.13z
			 M127.63,229.94c1.85-1.86,2.77-4.47,2.77-7.82c0-3.38-0.93-6.02-2.79-7.92c-1.86-1.9-4.53-2.85-8.02-2.85h-4.91v21.37h4.91
			C123.1,232.73,125.78,231.8,127.63,229.94z"/>
		<path d="M142.25,208.47v27.18h-3.55v-27.18H142.25z"/>
		<path d="M148.76,214.89c1.2-2.12,2.83-3.78,4.89-4.97c2.07-1.2,4.36-1.79,6.88-1.79c2.96,0,5.55,0.72,7.76,2.15
			c2.21,1.43,3.82,3.46,4.84,6.08h-4.25c-0.75-1.64-1.84-2.9-3.26-3.78c-1.42-0.88-3.11-1.33-5.09-1.33c-1.9,0-3.6,0.44-5.11,1.33
			c-1.51,0.88-2.69,2.14-3.55,3.76c-0.86,1.62-1.29,3.53-1.29,5.71c0,2.16,0.43,4.05,1.29,5.67c0.86,1.62,2.04,2.88,3.55,3.76
			c1.51,0.88,3.21,1.33,5.11,1.33c1.98,0,3.67-0.43,5.09-1.31c1.42-0.87,2.5-2.13,3.26-3.76h4.25c-1.01,2.6-2.63,4.61-4.84,6.03
			c-2.21,1.42-4.8,2.13-7.76,2.13c-2.52,0-4.82-0.59-6.88-1.78c-2.07-1.18-3.7-2.83-4.89-4.93c-1.2-2.11-1.79-4.48-1.79-7.14
			S147.57,217.01,148.76,214.89z"/>
		<path d="M194.47,229.61h-11.86l-2.18,6.04h-3.74l9.83-27.03h4.09l9.79,27.03h-3.74L194.47,229.61z M193.46,226.72l-4.91-13.73
			l-4.91,13.73H193.46z"/>
		<path d="M221.42,208.47v2.89h-7.41v24.3h-3.55v-24.3h-7.45v-2.89H221.42z"/>
		<path d="M231.21,234.15c-2.08-1.18-3.72-2.83-4.93-4.95c-1.21-2.12-1.81-4.5-1.81-7.16s0.61-5.04,1.81-7.16s2.85-3.77,4.93-4.95
			c2.08-1.18,4.38-1.77,6.9-1.77c2.55,0,4.86,0.59,6.94,1.77c2.08,1.18,3.72,2.83,4.91,4.93c1.2,2.11,1.79,4.5,1.79,7.18
			c0,2.68-0.6,5.07-1.79,7.18c-1.2,2.11-2.83,3.75-4.91,4.93c-2.08,1.18-4.39,1.78-6.94,1.78
			C235.59,235.93,233.29,235.34,231.21,234.15z M243.24,231.52c1.52-0.88,2.72-2.15,3.59-3.78s1.31-3.54,1.31-5.69
			c0-2.18-0.44-4.09-1.31-5.71s-2.06-2.88-3.57-3.76c-1.51-0.88-3.22-1.33-5.15-1.33s-3.64,0.44-5.15,1.33
			c-1.51,0.88-2.7,2.14-3.57,3.76s-1.31,3.53-1.31,5.71c0,2.16,0.43,4.06,1.31,5.69s2.07,2.9,3.59,3.78s3.23,1.33,5.13,1.33
			S241.72,232.4,243.24,231.52z"/>
		<path d="M270.75,235.65l-6.47-11.12h-4.29v11.12h-3.55v-27.18h8.78c2.05,0,3.79,0.35,5.21,1.05s2.48,1.65,3.18,2.85
			c0.7,1.2,1.05,2.56,1.05,4.1c0,1.87-0.54,3.52-1.62,4.95s-2.7,2.38-4.86,2.85l6.83,11.39H270.75z M259.99,221.69h5.23
			c1.92,0,3.37-0.47,4.33-1.42c0.96-0.95,1.44-2.22,1.44-3.8c0-1.61-0.47-2.86-1.42-3.74s-2.4-1.33-4.35-1.33h-5.23V221.69z"/>
	</g>
	<g>
		<path class="st6" d="M153.81,68.79c37.54,0,67.97,30.43,67.97,67.97"/>
		<rect x="111.92" y="94.87" class="st7" width="41.88" height="41.88"/>
		<rect x="111.92" class="st7" width="41.88" height="41.88"/>
		<path class="st8" d="M221.77,0.83c0,37.54-30.43,67.97-67.97,67.97"/>
		<path class="st2" d="M111.92,94.87h41.88V42.03C130.68,42.03,111.92,60.79,111.92,94.87z"/>
	</g>
</g>
<g>
	<path class="st2" d="M-1112.39,265.76c21.47,0,38.88,17.41,38.88,38.88s-17.41,38.88-38.88,38.88"/>
	<path class="st5" d="M-1034.63,265.76c-21.47,0-38.88,17.41-38.88,38.88s17.41,38.88,38.88,38.88"/>
	<path class="st5" d="M-1112.39,425.34c0-21.47,17.41-38.88,38.88-38.88s38.88,17.41,38.88,38.88"/>
	<path class="st3" d="M-1112.39,347.59c0,21.47,17.41,38.88,38.88,38.88s38.88-17.41,38.88-38.88"/>
	<path class="st9" d="M-1031.14,347.59c21.47,0,38.88,17.41,38.88,38.88s-17.41,38.88-38.88,38.88"/>
	<path class="st10" d="M-953.39,347.59c-21.47,0-38.88,17.41-38.88,38.88s17.41,38.88,38.88,38.88"/>
	<path class="st10" d="M-1031.14,343.51c0-21.47,17.41-38.88,38.88-38.88c21.47,0,38.88,17.41,38.88,38.88"/>
	<path class="st11" d="M-1031.14,265.76c0,21.47,17.41,38.88,38.88,38.88c21.47,0,38.88-17.41,38.88-38.88"/>
</g>
</svg>
