<svg width="400" height="400" viewBox="0 0 400 400" fill="none" xmlns="http://www.w3.org/2000/svg">
<g clip-path="url(#clip0_3_226)">
<path d="M168.872 150.775C168.872 107.441 202.887 72.3043 244.837 72.3043C286.787 72.3043 320.803 107.441 320.803 150.775" fill="#3E51A3"/>
<path d="M161.981 227.924C120.031 227.924 86.0156 192.787 86.0156 149.454C86.0156 106.121 120.031 71 161.981 71" fill="#316EB6"/>
<path d="M237.931 239.47C237.931 282.804 203.916 317.94 161.966 317.94C120.015 317.94 86 282.804 86 239.47" fill="#3E51A3"/>
<path d="M244.821 161C286.772 161 320.787 196.137 320.787 239.47C320.787 282.804 286.772 317.94 244.821 317.94" fill="#2B388A"/>
</g>
<defs>
<clipPath id="clip0_3_226">
<rect width="400" height="400" fill="white"/>
</clipPath>
</defs>
</svg>
