<?xml version="1.0" encoding="utf-8"?>
<!-- Generator: Adobe Illustrator 24.0.1, SVG Export Plug-In . SVG Version: 6.00 Build 0)  -->
<svg version="1.1" id="Layer_1" xmlns="http://www.w3.org/2000/svg" xmlns:xlink="http://www.w3.org/1999/xlink" x="0px" y="0px"
	 viewBox="0 0 256.59 248.4" style="enable-background:new 0 0 256.59 248.4;" xml:space="preserve">
<style type="text/css">
	.st0{fill:#356CB5;}
	.st1{fill:#3F50A3;}
	.st2{fill:#3E51A3;}
	.st3{fill:#316EB6;}
	.st4{fill:#2B388A;}
	.st5{fill:#2A3889;}
	.st6{fill:#FFFFFF;stroke:#3E52A3;stroke-width:53.5709;stroke-miterlimit:10;}
	.st7{fill:#2A398A;}
	.st8{fill:none;stroke:#326EB6;stroke-width:53.5709;stroke-miterlimit:10;}
	.st9{fill:#3E52A4;}
	.st10{fill:#304097;}
	.st11{fill:#336DB6;}
</style>
<g>
	<g>
		<path d="M800.01,181.95c0.82,0.64,1.48,1.44,1.97,2.4c0.49,0.96,0.74,1.98,0.75,3.07c0.01,1.38-0.33,2.62-1.02,3.74
			c-0.69,1.11-1.7,1.99-3.04,2.64c-1.33,0.65-2.91,0.98-4.73,1l-10.14,0.1l-0.26-27.18l9.75-0.09c1.85-0.02,3.42,0.27,4.73,0.87
			s2.29,1.41,2.95,2.45c0.66,1.03,1,2.2,1.01,3.5c0.02,1.61-0.41,2.95-1.27,4.01s-2,1.83-3.43,2.31
			C798.28,180.91,799.19,181.3,800.01,181.95z M787.22,179.42l5.97-0.06c1.66-0.02,2.95-0.42,3.85-1.21
			c0.9-0.79,1.35-1.87,1.33-3.25c-0.01-1.38-0.48-2.45-1.4-3.22c-0.92-0.77-2.23-1.15-3.95-1.13l-5.89,0.06L787.22,179.42z
			 M797.74,190.59c0.98-0.84,1.46-2,1.45-3.49c-0.01-1.51-0.55-2.69-1.59-3.55c-1.05-0.86-2.44-1.28-4.18-1.27l-6.16,0.06l0.09,9.59
			l6.28-0.06C795.38,191.86,796.76,191.43,797.74,190.59z"/>
		<path d="M811.04,170.33l0.09,9.09l9.91-0.1l0.03,2.92l-9.91,0.09l0.09,9.36l11.08-0.11l0.03,2.92l-14.62,0.14l-0.26-27.22
			l14.62-0.14l0.03,2.92L811.04,170.33z"/>
		<path d="M852.19,181.45c0.83,0.64,1.48,1.44,1.97,2.4c0.49,0.96,0.74,1.98,0.75,3.07c0.01,1.38-0.33,2.62-1.02,3.74
			c-0.69,1.11-1.7,1.99-3.04,2.64c-1.33,0.65-2.91,0.98-4.73,1l-10.14,0.1l-0.26-27.18l9.75-0.09c1.85-0.02,3.42,0.27,4.73,0.87
			s2.29,1.41,2.95,2.45c0.66,1.03,1,2.2,1.01,3.5c0.02,1.61-0.41,2.95-1.27,4.01c-0.86,1.06-2,1.83-3.43,2.31
			C850.46,180.41,851.37,180.8,852.19,181.45z M839.39,178.92l5.97-0.06c1.66-0.02,2.95-0.42,3.85-1.21
			c0.9-0.79,1.35-1.87,1.33-3.25c-0.01-1.38-0.48-2.45-1.4-3.22s-2.23-1.15-3.95-1.13l-5.89,0.06L839.39,178.92z M849.91,190.09
			c0.98-0.84,1.46-2,1.45-3.48c-0.01-1.51-0.55-2.69-1.59-3.55c-1.05-0.86-2.44-1.28-4.18-1.27l-6.16,0.06l0.09,9.59l6.28-0.06
			C847.56,191.36,848.93,190.93,849.91,190.09z"/>
		<path d="M863.21,169.83l0.09,9.09l9.91-0.09l0.03,2.92l-9.91,0.09l0.09,9.36l11.08-0.11l0.03,2.92l-14.62,0.14l-0.26-27.22
			l14.62-0.14l0.03,2.92L863.21,169.83z"/>
		<path d="M896.38,166.63l0.03,2.89l-7.41,0.07l0.23,24.3l-3.55,0.03l-0.23-24.3l-7.45,0.07l-0.03-2.89L896.38,166.63z"/>
		<path d="M917.47,166.43l0.03,2.89l-7.41,0.07l0.23,24.3l-3.55,0.03l-0.23-24.3l-7.45,0.07l-0.03-2.89L917.47,166.43z"/>
		<path d="M925.42,169.24l0.09,9.09l9.91-0.09l0.03,2.92l-9.91,0.09l0.09,9.36l11.08-0.11l0.03,2.92l-14.62,0.14l-0.26-27.22
			l14.62-0.14l0.03,2.92L925.42,169.24z"/>
		<path d="M956.42,193.24l-6.58-11.05l-4.29,0.04l0.11,11.11l-3.55,0.03l-0.26-27.18l8.77-0.08c2.05-0.02,3.79,0.31,5.22,1
			s2.49,1.63,3.21,2.82s1.08,2.55,1.09,4.08c0.02,1.87-0.51,3.53-1.57,4.97c-1.07,1.44-2.68,2.41-4.83,2.89l6.93,11.32
			L956.42,193.24z M945.52,179.38l5.23-0.05c1.92-0.02,3.36-0.51,4.32-1.47c0.95-0.96,1.42-2.23,1.41-3.82
			c-0.02-1.61-0.5-2.85-1.46-3.73c-0.96-0.88-2.41-1.3-4.36-1.28l-5.23,0.05L945.52,179.38z"/>
		<path d="M854.09,206.77l-8.69,17.01l0.1,10.26l-3.55,0.03l-0.1-10.26l-9.05-16.84l3.94-0.04l6.84,13.7l6.58-13.83L854.09,206.77z"
			/>
		<path d="M863.5,232.36c-2.09-1.16-3.75-2.8-4.98-4.9c-1.23-2.11-1.86-4.49-1.88-7.14c-0.03-2.65,0.56-5.04,1.75-7.17
			s2.82-3.8,4.89-5c2.07-1.2,4.36-1.82,6.89-1.84c2.55-0.02,4.87,0.54,6.96,1.71c2.09,1.16,3.75,2.79,4.96,4.89
			c1.22,2.09,1.84,4.48,1.86,7.16c0.03,2.68-0.55,5.08-1.73,7.19c-1.18,2.12-2.8,3.78-4.87,4.98c-2.07,1.2-4.38,1.82-6.92,1.84
			C867.9,234.09,865.59,233.52,863.5,232.36z M875.51,229.61c1.51-0.9,2.7-2.17,3.55-3.82c0.85-1.65,1.27-3.55,1.25-5.71
			c-0.02-2.18-0.47-4.08-1.36-5.7c-0.89-1.62-2.09-2.86-3.61-3.73c-1.52-0.87-3.24-1.29-5.16-1.28c-1.92,0.02-3.64,0.48-5.14,1.38
			c-1.5,0.9-2.68,2.17-3.53,3.8c-0.86,1.63-1.27,3.54-1.25,5.73c0.02,2.16,0.47,4.05,1.36,5.68s2.09,2.88,3.62,3.75
			c1.53,0.87,3.24,1.29,5.14,1.28C872.29,230.97,874,230.51,875.51,229.61z"/>
		<path d="M891.96,206.41l0.17,17.2c0.02,2.42,0.63,4.21,1.83,5.37c1.2,1.16,2.85,1.73,4.95,1.71c2.08-0.02,3.71-0.62,4.88-1.8
			c1.17-1.18,1.75-2.98,1.72-5.4l-0.17-17.2l3.55-0.03l0.16,17.16c0.02,2.26-0.42,4.17-1.31,5.73s-2.11,2.72-3.65,3.49
			c-1.54,0.77-3.27,1.16-5.2,1.18s-3.66-0.34-5.22-1.08c-1.55-0.74-2.79-1.88-3.7-3.42s-1.38-3.44-1.4-5.7l-0.16-17.16
			L891.96,206.41z"/>
	</g>
	<g>
		<path class="st0" d="M896.04,45.45L896.04,45.45c0,24.65-19.98,44.63-44.63,44.63h0v44.63h44.63c24.65,0,44.63-19.98,44.63-44.63
			v0C940.67,65.43,920.68,45.45,896.04,45.45z"/>
		<path class="st1" d="M896.03,45.45V0.81h-89.26v44.63c0,24.65,19.98,44.63,44.63,44.63V45.45H896.03z"/>
	</g>
</g>
<g>
	<g>
		<path d="M18.25,212.62l-6.2-10.64H7.95v10.64h-3.4v-26.03h8.4c1.97,0,3.63,0.34,4.99,1.01c1.36,0.67,2.37,1.58,3.04,2.73
			c0.67,1.15,1.01,2.45,1.01,3.92c0,1.79-0.52,3.37-1.55,4.74c-1.03,1.37-2.58,2.28-4.65,2.73l6.54,10.9H18.25z M7.95,199.25h5
			c1.84,0,3.22-0.45,4.15-1.36c0.92-0.91,1.38-2.12,1.38-3.64c0-1.54-0.45-2.74-1.36-3.58c-0.91-0.85-2.3-1.27-4.16-1.27h-5V199.25z
			"/>
		<path d="M30.65,189.36v8.7h9.48v2.8h-9.48v8.96h10.6v2.8h-14v-26.06h14v2.8H30.65z"/>
		<path d="M46.86,192.73c1.14-2.03,2.71-3.62,4.69-4.76c1.98-1.14,4.18-1.72,6.59-1.72c2.84,0,5.31,0.69,7.43,2.05
			c2.12,1.37,3.66,3.31,4.63,5.83h-4.07c-0.72-1.57-1.76-2.78-3.12-3.62c-1.36-0.85-2.98-1.27-4.87-1.27
			c-1.82,0-3.45,0.42-4.89,1.27c-1.44,0.85-2.58,2.05-3.4,3.6s-1.23,3.38-1.23,5.47c0,2.07,0.41,3.88,1.23,5.43s1.95,2.76,3.4,3.6
			s3.07,1.27,4.89,1.27c1.89,0,3.52-0.42,4.87-1.25s2.4-2.04,3.12-3.6h4.07c-0.97,2.49-2.51,4.41-4.63,5.77
			c-2.12,1.36-4.59,2.03-7.43,2.03c-2.41,0-4.61-0.57-6.59-1.7c-1.98-1.13-3.54-2.71-4.69-4.72c-1.15-2.02-1.72-4.29-1.72-6.83
			S45.71,194.76,46.86,192.73z"/>
		<path d="M88.94,212.62l-6.2-10.64h-4.11v10.64h-3.4v-26.03h8.4c1.97,0,3.63,0.34,4.99,1.01c1.36,0.67,2.37,1.58,3.04,2.73
			c0.67,1.15,1.01,2.45,1.01,3.92c0,1.79-0.52,3.37-1.55,4.74c-1.03,1.37-2.58,2.28-4.65,2.73l6.54,10.9H88.94z M78.63,199.25h5
			c1.84,0,3.22-0.45,4.15-1.36c0.92-0.91,1.38-2.12,1.38-3.64c0-1.54-0.45-2.74-1.36-3.58c-0.91-0.85-2.3-1.27-4.16-1.27h-5V199.25z
			"/>
		<path d="M101.26,186.59v16.47c0,2.31,0.57,4.03,1.7,5.15s2.71,1.68,4.72,1.68c1.99,0,3.55-0.56,4.69-1.68s1.7-2.84,1.7-5.15
			v-16.47h3.4v16.43c0,2.17-0.44,3.99-1.31,5.47c-0.87,1.48-2.05,2.58-3.53,3.3c-1.48,0.72-3.14,1.08-4.98,1.08
			c-1.84,0-3.5-0.36-4.99-1.08c-1.48-0.72-2.65-1.82-3.51-3.3c-0.86-1.48-1.29-3.3-1.29-5.47v-16.43H101.26z"/>
		<path d="M126.54,186.59v26.03h-3.4v-26.03H126.54z"/>
		<path d="M148.34,186.59v2.76h-7.09v23.26h-3.4v-23.26h-7.13v-2.76H148.34z"/>
		<path d="M178.92,186.78v25.84h-3.4v-19.27l-8.59,19.27h-2.39l-8.62-19.3v19.3h-3.4v-25.84h3.66l9.56,21.36l9.56-21.36H178.92z"/>
		<path d="M188.07,189.36v8.7h9.48v2.8h-9.48v8.96h10.6v2.8h-14v-26.06h14v2.8H188.07z"/>
		<path d="M224.29,212.62h-3.4l-13.67-20.72v20.72h-3.4v-26.06h3.4l13.67,20.69v-20.69h3.4V212.62z"/>
		<path d="M246.1,186.59v2.76H239v23.26h-3.4v-23.26h-7.13v-2.76H246.1z"/>
		<path d="M30.43,222.34v25.84h-3.4v-19.27l-8.59,19.27h-2.39l-8.62-19.3v19.3h-3.4v-25.84h3.66l9.56,21.36l9.56-21.36H30.43z"/>
		<path d="M51.56,242.39H40.21l-2.09,5.79h-3.58l9.41-25.88h3.92l9.37,25.88h-3.58L51.56,242.39z M50.59,239.62l-4.7-13.14
			l-4.71,13.14H50.59z"/>
		<path d="M81.81,248.17h-3.4l-13.67-20.72v20.72h-3.4v-26.06h3.4l13.67,20.69v-20.69h3.4V248.17z"/>
		<path d="M102.98,242.39H91.63l-2.09,5.79h-3.58l9.41-25.88h3.92l9.37,25.88h-3.58L102.98,242.39z M102.01,239.62l-4.7-13.14
			l-4.71,13.14H102.01z"/>
		<path d="M132.48,229.69c-0.72-1.52-1.77-2.69-3.14-3.53s-2.96-1.25-4.78-1.25c-1.82,0-3.45,0.42-4.91,1.25s-2.6,2.03-3.44,3.58
			c-0.83,1.56-1.25,3.36-1.25,5.4s0.42,3.83,1.25,5.38c0.83,1.54,1.98,2.73,3.44,3.57s3.09,1.25,4.91,1.25
			c2.54,0,4.63-0.76,6.27-2.28c1.64-1.52,2.6-3.57,2.88-6.16h-10.38v-2.76h14v2.61c-0.2,2.14-0.87,4.1-2.02,5.88
			c-1.15,1.78-2.65,3.19-4.52,4.22s-3.95,1.55-6.24,1.55c-2.42,0-4.62-0.57-6.61-1.7c-1.99-1.13-3.57-2.71-4.72-4.72
			s-1.74-4.29-1.74-6.83s0.58-4.82,1.74-6.85c1.16-2.03,2.73-3.61,4.72-4.74c1.99-1.13,4.19-1.7,6.61-1.7
			c2.76,0,5.21,0.68,7.34,2.05c2.13,1.37,3.68,3.3,4.65,5.79H132.48z"/>
		<path d="M145.21,224.91v8.7h9.48v2.8h-9.48v8.96h10.6v2.8h-14v-26.06h14v2.8H145.21z"/>
		<path d="M187.36,222.34v25.84h-3.4v-19.27l-8.59,19.27h-2.39l-8.62-19.3v19.3h-3.4v-25.84h3.66l9.56,21.36l9.56-21.36H187.36z"/>
		<path d="M196.51,224.91v8.7H206v2.8h-9.48v8.96h10.6v2.8h-14v-26.06h14v2.8H196.51z"/>
		<path d="M232.73,248.17h-3.4l-13.67-20.72v20.72h-3.4v-26.06h3.4l13.67,20.69v-20.69h3.4V248.17z"/>
		<path d="M254.54,222.15v2.76h-7.09v23.26h-3.4v-23.26h-7.13v-2.76H254.54z"/>
	</g>
	<path class="st2" d="M98.96,49.54c0-26.91,21.82-48.73,48.73-48.73s48.73,21.82,48.73,48.73"/>
	<path class="st3" d="M94.54,97.45c-26.91,0-48.73-21.82-48.73-48.73S67.63,0,94.54,0"/>
	<path class="st2" d="M143.26,104.62c0,26.91-21.82,48.73-48.73,48.73s-48.73-21.82-48.73-48.73"/>
	<path class="st4" d="M147.68,55.89c26.91,0,48.73,21.82,48.73,48.73s-21.82,48.73-48.73,48.73"/>
</g>
<g>
	<g>
		<path d="M1.85-89.53c1.23-2.19,2.92-3.9,5.05-5.13c2.13-1.23,4.5-1.85,7.1-1.85c3.06,0,5.73,0.74,8.01,2.21
			c2.28,1.48,3.94,3.57,4.99,6.28h-4.39c-0.78-1.69-1.9-2.99-3.36-3.9c-1.46-0.91-3.21-1.37-5.25-1.37c-1.96,0-3.72,0.46-5.27,1.37
			c-1.56,0.91-2.78,2.21-3.66,3.88s-1.33,3.64-1.33,5.9c0,2.23,0.44,4.18,1.33,5.86s2.11,2.97,3.66,3.88
			c1.56,0.91,3.31,1.37,5.27,1.37c2.04,0,3.79-0.45,5.25-1.35c1.46-0.9,2.58-2.19,3.36-3.88h4.39c-1.05,2.68-2.71,4.76-4.99,6.22
			c-2.28,1.46-4.95,2.19-8.01,2.19c-2.6,0-4.97-0.61-7.1-1.83c-2.13-1.22-3.82-2.92-5.05-5.09C0.62-76.96,0-79.41,0-82.15
			C0-84.89,0.62-87.35,1.85-89.53z"/>
		<path d="M38.04-69.65c-2.15-1.22-3.84-2.92-5.09-5.11c-1.25-2.19-1.87-4.65-1.87-7.39c0-2.74,0.62-5.2,1.87-7.39
			c1.25-2.19,2.94-3.89,5.09-5.11c2.15-1.22,4.52-1.83,7.12-1.83c2.63,0,5.02,0.61,7.16,1.83c2.15,1.22,3.84,2.92,5.07,5.09
			s1.85,4.64,1.85,7.41s-0.62,5.23-1.85,7.41c-1.23,2.17-2.92,3.87-5.07,5.09c-2.15,1.22-4.54,1.83-7.16,1.83
			C42.56-67.82,40.18-68.43,38.04-69.65z M50.45-72.37c1.57-0.91,2.8-2.21,3.7-3.9s1.35-3.65,1.35-5.88c0-2.25-0.45-4.22-1.35-5.9
			s-2.13-2.97-3.68-3.88c-1.56-0.91-3.33-1.37-5.31-1.37c-1.99,0-3.76,0.46-5.31,1.37c-1.56,0.91-2.78,2.21-3.68,3.88
			c-0.9,1.68-1.35,3.64-1.35,5.9c0,2.23,0.45,4.19,1.35,5.88c0.9,1.69,2.13,2.99,3.7,3.9C41.44-71.46,43.2-71,45.16-71
			C47.12-71,48.88-71.46,50.45-72.37z"/>
		<path d="M78.85-68.1l-6.68-11.47h-4.43v11.47h-3.66v-28.05h9.06c2.12,0,3.91,0.36,5.37,1.09c1.46,0.72,2.56,1.71,3.28,2.94
			c0.72,1.23,1.09,2.64,1.09,4.23c0,1.93-0.56,3.64-1.67,5.11c-1.11,1.48-2.78,2.46-5.01,2.94l7.04,11.75H78.85z M67.74-82.51h5.39
			c1.99,0,3.48-0.49,4.47-1.47c0.99-0.98,1.49-2.29,1.49-3.92c0-1.66-0.49-2.95-1.47-3.86s-2.48-1.37-4.49-1.37h-5.39V-82.51z"/>
		<path d="M92.21-93.18v9.38h10.22v3.02H92.21v9.66h11.43v3.02H88.55V-96.2h15.09v3.02H92.21z"/>
		<path d="M139.34-96.16v28.05h-3.66v-12.72h-14.29v12.72h-3.66v-28.05h3.66v12.32h14.29v-12.32H139.34z"/>
		<path d="M149.16-96.16v17.75c0,2.5,0.61,4.35,1.83,5.55c1.22,1.21,2.92,1.81,5.09,1.81c2.15,0,3.83-0.6,5.05-1.81
			c1.22-1.21,1.83-3.06,1.83-5.55v-17.75h3.66v17.71c0,2.33-0.47,4.3-1.41,5.9c-0.94,1.6-2.21,2.78-3.8,3.56
			c-1.6,0.78-3.39,1.17-5.37,1.17c-1.99,0-3.78-0.39-5.37-1.17c-1.6-0.78-2.86-1.96-3.78-3.56s-1.39-3.56-1.39-5.9v-17.71H149.16z"
			/>
		<path d="M201.21-95.95v27.85h-3.66v-20.77l-9.26,20.77h-2.58l-9.3-20.81v20.81h-3.66v-27.85h3.95L187-72.93l10.3-23.02H201.21z"/>
		<path d="M223.99-74.34h-12.24l-2.25,6.24h-3.86L215.78-96H220l10.1,27.89h-3.86L223.99-74.34z M222.94-77.32l-5.07-14.17
			l-5.07,14.17H222.94z"/>
		<path d="M256.59-68.1h-3.66L238.2-90.44v22.34h-3.66V-96.2h3.66l14.73,22.3v-22.3h3.66V-68.1z"/>
		<path d="M33.19-29.77L26.5-41.25h-4.43v11.47h-3.66v-28.05h9.06c2.12,0,3.91,0.36,5.37,1.09s2.56,1.71,3.28,2.94
			c0.72,1.23,1.09,2.64,1.09,4.23c0,1.93-0.56,3.64-1.67,5.11c-1.11,1.48-2.78,2.46-5.01,2.94l7.04,11.75H33.19z M22.08-44.18h5.39
			c1.99,0,3.47-0.49,4.47-1.47c0.99-0.98,1.49-2.29,1.49-3.92c0-1.66-0.49-2.95-1.47-3.86c-0.98-0.91-2.48-1.37-4.49-1.37h-5.39
			V-44.18z"/>
		<path d="M46.55-54.85v9.38h10.22v3.02H46.55v9.66h11.43v3.02H42.89v-28.09h15.09v3.02H46.55z"/>
		<path d="M67.46-30.48c-1.46-0.66-2.61-1.57-3.44-2.74c-0.83-1.17-1.26-2.52-1.29-4.04h3.9c0.13,1.31,0.68,2.42,1.63,3.32
			c0.95,0.9,2.34,1.35,4.17,1.35c1.74,0,3.12-0.44,4.13-1.31c1.01-0.87,1.51-1.99,1.51-3.36c0-1.07-0.29-1.95-0.88-2.62
			c-0.59-0.67-1.33-1.18-2.21-1.53c-0.89-0.35-2.08-0.72-3.58-1.13c-1.85-0.48-3.33-0.97-4.45-1.45c-1.11-0.48-2.07-1.24-2.86-2.27
			c-0.79-1.03-1.19-2.42-1.19-4.17c0-1.53,0.39-2.88,1.17-4.07c0.78-1.18,1.87-2.09,3.28-2.74c1.41-0.64,3.03-0.97,4.85-0.97
			c2.63,0,4.78,0.66,6.46,1.97c1.68,1.32,2.62,3.06,2.84,5.23h-4.03c-0.13-1.07-0.7-2.02-1.69-2.84c-0.99-0.82-2.31-1.23-3.94-1.23
			c-1.53,0-2.78,0.4-3.74,1.19c-0.97,0.79-1.45,1.9-1.45,3.32c0,1.02,0.29,1.85,0.87,2.5s1.29,1.13,2.13,1.47
			c0.84,0.34,2.03,0.72,3.56,1.15c1.85,0.51,3.34,1.01,4.47,1.51c1.13,0.5,2.09,1.26,2.9,2.29c0.8,1.03,1.21,2.43,1.21,4.21
			c0,1.37-0.36,2.66-1.09,3.86c-0.72,1.21-1.8,2.19-3.22,2.94c-1.42,0.75-3.1,1.13-5.03,1.13C70.58-29.49,68.92-29.82,67.46-30.48z"
			/>
		<path d="M92.75-31.32c-2.15-1.22-3.84-2.92-5.09-5.11c-1.25-2.19-1.87-4.65-1.87-7.39c0-2.74,0.62-5.2,1.87-7.39
			c1.25-2.19,2.94-3.89,5.09-5.11c2.15-1.22,4.52-1.83,7.12-1.83c2.63,0,5.02,0.61,7.16,1.83c2.15,1.22,3.84,2.92,5.07,5.09
			s1.85,4.64,1.85,7.41s-0.62,5.23-1.85,7.41c-1.23,2.17-2.92,3.87-5.07,5.09c-2.15,1.22-4.54,1.83-7.16,1.83
			C97.28-29.49,94.9-30.1,92.75-31.32z M105.17-34.04c1.57-0.91,2.8-2.21,3.7-3.9s1.35-3.65,1.35-5.88c0-2.25-0.45-4.22-1.35-5.9
			s-2.13-2.97-3.68-3.88c-1.56-0.91-3.33-1.37-5.31-1.37c-1.99,0-3.76,0.46-5.31,1.37c-1.56,0.91-2.78,2.21-3.68,3.88
			c-0.9,1.68-1.35,3.64-1.35,5.9c0,2.23,0.45,4.19,1.35,5.88c0.9,1.69,2.13,2.99,3.7,3.9c1.57,0.91,3.33,1.37,5.29,1.37
			C101.84-32.67,103.6-33.13,105.17-34.04z"/>
		<path d="M122.38-57.83v17.75c0,2.5,0.61,4.35,1.83,5.55c1.22,1.21,2.92,1.81,5.09,1.81c2.15,0,3.83-0.6,5.05-1.81
			c1.22-1.21,1.83-3.06,1.83-5.55v-17.75h3.66v17.71c0,2.33-0.47,4.3-1.41,5.9c-0.94,1.6-2.21,2.78-3.8,3.56
			c-1.6,0.78-3.39,1.17-5.37,1.17c-1.99,0-3.78-0.39-5.37-1.17c-1.6-0.78-2.86-1.96-3.78-3.56s-1.39-3.56-1.39-5.9v-17.71H122.38z"
			/>
		<path d="M160.74-29.77l-6.68-11.47h-4.43v11.47h-3.66v-28.05h9.06c2.12,0,3.91,0.36,5.37,1.09s2.56,1.71,3.28,2.94
			c0.72,1.23,1.09,2.64,1.09,4.23c0,1.93-0.56,3.64-1.67,5.11c-1.11,1.48-2.78,2.46-5.01,2.94l7.04,11.75H160.74z M149.63-44.18
			h5.39c1.99,0,3.47-0.49,4.47-1.47c0.99-0.98,1.49-2.29,1.49-3.92c0-1.66-0.49-2.95-1.47-3.86c-0.98-0.91-2.48-1.37-4.49-1.37
			h-5.39V-44.18z"/>
		<path d="M170.92-51.21c1.23-2.19,2.92-3.9,5.05-5.13c2.13-1.23,4.5-1.85,7.1-1.85c3.06,0,5.73,0.74,8.01,2.21
			c2.28,1.48,3.94,3.57,4.99,6.28h-4.39c-0.78-1.69-1.9-2.99-3.36-3.9c-1.46-0.91-3.21-1.37-5.25-1.37c-1.96,0-3.72,0.46-5.27,1.37
			c-1.56,0.91-2.78,2.21-3.66,3.88c-0.89,1.68-1.33,3.64-1.33,5.9c0,2.23,0.44,4.18,1.33,5.86c0.88,1.68,2.11,2.97,3.66,3.88
			s3.31,1.37,5.27,1.37c2.04,0,3.79-0.45,5.25-1.35c1.46-0.9,2.58-2.19,3.36-3.88h4.39c-1.05,2.68-2.71,4.76-4.99,6.22
			c-2.28,1.46-4.95,2.19-8.01,2.19c-2.6,0-4.97-0.61-7.1-1.83c-2.13-1.22-3.82-2.92-5.05-5.09s-1.85-4.63-1.85-7.37
			C169.07-46.56,169.68-49.02,170.92-51.21z"/>
		<path d="M205.17-54.85v9.38h10.22v3.02h-10.22v9.66h11.43v3.02h-15.09v-28.09h15.09v3.02H205.17z"/>
		<path d="M226.08-30.48c-1.46-0.66-2.61-1.57-3.44-2.74c-0.83-1.17-1.26-2.52-1.29-4.04h3.9c0.13,1.31,0.68,2.42,1.63,3.32
			c0.95,0.9,2.34,1.35,4.17,1.35c1.74,0,3.12-0.44,4.13-1.31c1.01-0.87,1.51-1.99,1.51-3.36c0-1.07-0.29-1.95-0.88-2.62
			c-0.59-0.67-1.33-1.18-2.21-1.53c-0.89-0.35-2.08-0.72-3.58-1.13c-1.85-0.48-3.33-0.97-4.45-1.45c-1.11-0.48-2.07-1.24-2.86-2.27
			c-0.79-1.03-1.19-2.42-1.19-4.17c0-1.53,0.39-2.88,1.17-4.07c0.78-1.18,1.87-2.09,3.28-2.74c1.41-0.64,3.03-0.97,4.85-0.97
			c2.63,0,4.78,0.66,6.46,1.97c1.68,1.32,2.62,3.06,2.84,5.23h-4.03c-0.13-1.07-0.7-2.02-1.69-2.84c-0.99-0.82-2.31-1.23-3.94-1.23
			c-1.53,0-2.78,0.4-3.74,1.19c-0.97,0.79-1.45,1.9-1.45,3.32c0,1.02,0.29,1.85,0.87,2.5s1.29,1.13,2.13,1.47
			c0.84,0.34,2.03,0.72,3.56,1.15c1.85,0.51,3.34,1.01,4.47,1.51c1.13,0.5,2.09,1.26,2.9,2.29c0.8,1.03,1.21,2.43,1.21,4.21
			c0,1.37-0.36,2.66-1.09,3.86c-0.72,1.21-1.8,2.19-3.22,2.94c-1.42,0.75-3.1,1.13-5.03,1.13C229.2-29.49,227.54-29.82,226.08-30.48
			z"/>
	</g>
	<g>
		<path class="st5" d="M135.19-245.17h-34.38v-50.74h50.74v34.38C151.55-252.49,144.23-245.17,135.19-245.17z"/>
		<path class="st5" d="M151.55-188.03h-35.49c-8.42,0-15.24-6.83-15.24-15.24v-35.49h33.54c9.5,0,17.2,7.7,17.2,17.2V-188.03z"/>
		<path class="st2" d="M151.55-130.89h-50.74v-35.92c0-8.18,6.63-14.81,14.81-14.81h35.92V-130.89z"/>
		<path class="st2" d="M94.82-130.89L94.82-130.89c-28.02,0-50.74-22.72-50.74-50.74v0h36c8.14,0,14.74,6.6,14.74,14.74V-130.89z"/>
		<path class="st5" d="M78.36-188.03H44.08v0c0-28.02,22.72-50.74,50.74-50.74h0v34.28C94.82-195.4,87.45-188.03,78.36-188.03z"/>
		<path class="st3" d="M157.61-188.03L157.61-188.03l0-35.77c0-8.27,6.7-14.97,14.97-14.97h35.77v0
			C208.35-210.75,185.64-188.03,157.61-188.03z"/>
		<path class="st3" d="M208.35-245.17h-34.93c-8.73,0-15.8-7.08-15.8-15.8v-34.93h0C185.64-295.91,208.35-273.19,208.35-245.17
			L208.35-245.17z"/>
	</g>
</g>
<g>
	<g>
		<path d="M1530.4-68.1l-11.19-12.4v12.4h-3.55v-27.18h3.55v12.6l11.23-12.6h4.49l-12.32,13.61l12.44,13.57H1530.4z"/>
		<path d="M1542.57-92.4v9.09h9.91v2.92h-9.91v9.36h11.08v2.92h-14.62v-27.22h14.62v2.93H1542.57z"/>
		<path d="M1578.06-95.29l-8.85,16.93v10.26h-3.55v-10.26l-8.89-16.93h3.94l6.71,13.77l6.71-13.77H1578.06z"/>
		<path d="M1608.07-81.69c-1.55,1.5-3.91,2.24-7.08,2.24h-5.23v11.35h-3.55v-27.18h8.78c3.07,0,5.4,0.74,7,2.22
			c1.6,1.48,2.4,3.39,2.4,5.73C1610.39-85.07,1609.62-83.19,1608.07-81.69z M1605.36-83.66c0.94-0.86,1.4-2.08,1.4-3.67
			c0-3.35-1.92-5.03-5.77-5.03h-5.23v9.98h5.23C1602.97-82.38,1604.43-82.8,1605.36-83.66z"/>
		<path d="M1618.35-92.4v9.09h9.91v2.92h-9.91v9.36h11.08v2.92h-14.62v-27.22h14.62v2.93H1618.35z"/>
		<path d="M1649.12-68.1l-6.47-11.12h-4.29v11.12h-3.55v-27.18h8.77c2.05,0,3.79,0.35,5.21,1.05c1.42,0.7,2.48,1.65,3.18,2.85
			c0.7,1.2,1.05,2.56,1.05,4.1c0,1.87-0.54,3.52-1.62,4.95s-2.7,2.38-4.86,2.85l6.83,11.39H1649.12z M1638.36-82.06h5.23
			c1.92,0,3.37-0.47,4.33-1.42c0.96-0.95,1.44-2.22,1.44-3.8c0-1.61-0.47-2.86-1.42-3.74s-2.4-1.33-4.35-1.33h-5.23V-82.06z"/>
		<path d="M1673.88-95.29v2.89h-11.82v9.17h9.59v2.89h-9.59v12.25h-3.55v-27.18H1673.88z"/>
		<path d="M1683.59-69.6c-2.08-1.18-3.72-2.83-4.93-4.95c-1.21-2.12-1.81-4.5-1.81-7.16s0.6-5.04,1.81-7.16s2.85-3.77,4.93-4.95
			c2.08-1.18,4.38-1.77,6.9-1.77c2.55,0,4.86,0.59,6.94,1.77c2.08,1.18,3.72,2.83,4.91,4.93c1.2,2.11,1.79,4.5,1.79,7.18
			c0,2.68-0.6,5.07-1.79,7.18c-1.2,2.11-2.83,3.75-4.91,4.93c-2.08,1.18-4.39,1.78-6.94,1.78
			C1687.97-67.83,1685.67-68.42,1683.59-69.6z M1695.63-72.24c1.52-0.88,2.72-2.15,3.59-3.78c0.87-1.64,1.31-3.54,1.31-5.69
			c0-2.18-0.44-4.09-1.31-5.71c-0.87-1.62-2.06-2.88-3.57-3.76c-1.51-0.88-3.22-1.33-5.15-1.33c-1.92,0-3.64,0.44-5.15,1.33
			c-1.51,0.88-2.7,2.14-3.57,3.76s-1.31,3.53-1.31,5.71c0,2.16,0.44,4.06,1.31,5.69s2.07,2.9,3.59,3.78s3.23,1.33,5.13,1.33
			C1692.39-70.91,1694.11-71.35,1695.63-72.24z"/>
		<path d="M1723.14-68.1l-6.47-11.12h-4.29v11.12h-3.55v-27.18h8.77c2.05,0,3.79,0.35,5.21,1.05c1.42,0.7,2.48,1.65,3.18,2.85
			c0.7,1.2,1.05,2.56,1.05,4.1c0,1.87-0.54,3.52-1.62,4.95c-1.08,1.43-2.7,2.38-4.86,2.85l6.82,11.39H1723.14z M1712.38-82.06h5.23
			c1.92,0,3.37-0.47,4.33-1.42c0.96-0.95,1.44-2.22,1.44-3.8c0-1.61-0.47-2.86-1.42-3.74c-0.95-0.88-2.4-1.33-4.35-1.33h-5.23
			V-82.06z"/>
		<path d="M1760.11-95.09v26.99h-3.55v-20.12l-8.97,20.12h-2.5l-9.01-20.16v20.16h-3.55v-26.99h3.82l9.98,22.31l9.98-22.31H1760.11z
			"/>
		<path d="M1782.19-74.15h-11.86l-2.18,6.04h-3.74l9.83-27.03h4.09l9.79,27.03h-3.74L1782.19-74.15z M1781.17-77.03l-4.91-13.73
			l-4.91,13.73H1781.17z"/>
		<path d="M1813.78-68.1h-3.55l-14.27-21.64v21.64h-3.55v-27.22h3.55l14.27,21.61v-21.61h3.55V-68.1z"/>
		<path d="M1820.29-88.87c1.2-2.12,2.83-3.78,4.89-4.97c2.07-1.2,4.36-1.79,6.88-1.79c2.96,0,5.55,0.72,7.76,2.15
			c2.21,1.43,3.82,3.46,4.84,6.08h-4.25c-0.75-1.64-1.84-2.9-3.26-3.78c-1.42-0.88-3.11-1.33-5.09-1.33c-1.9,0-3.6,0.44-5.11,1.33
			c-1.51,0.88-2.69,2.14-3.55,3.76c-0.86,1.62-1.29,3.53-1.29,5.71c0,2.16,0.43,4.05,1.29,5.67c0.86,1.62,2.04,2.88,3.55,3.76
			s3.21,1.33,5.11,1.33c1.97,0,3.67-0.43,5.09-1.31s2.5-2.13,3.26-3.76h4.25c-1.01,2.6-2.63,4.61-4.84,6.03
			c-2.21,1.42-4.8,2.13-7.76,2.13c-2.52,0-4.82-0.59-6.88-1.78c-2.07-1.18-3.7-2.83-4.89-4.93c-1.2-2.11-1.79-4.48-1.79-7.14
			S1819.09-86.75,1820.29-88.87z"/>
		<path d="M1853.48-92.4v9.09h9.91v2.92h-9.91v9.36h11.08v2.92h-14.62v-27.22h14.62v2.93H1853.48z"/>
		<path d="M1593.33-57.29v27.18h-3.55v-27.18H1593.33z"/>
		<path d="M1620.75-30.1h-3.55l-14.27-21.64v21.64h-3.55v-27.22h3.55l14.27,21.61v-21.61h3.55V-30.1z"/>
		<path d="M1642.96-55.63c2.17,1.11,3.83,2.68,4.99,4.74c1.16,2.05,1.74,4.47,1.74,7.25c0,2.78-0.58,5.19-1.74,7.23
			c-1.16,2.04-2.82,3.6-4.99,4.68c-2.17,1.08-4.74,1.62-7.7,1.62h-8.46v-27.18h8.46C1638.22-57.29,1640.78-56.73,1642.96-55.63z
			 M1643.29-35.81c1.85-1.86,2.77-4.47,2.77-7.82c0-3.38-0.93-6.02-2.79-7.92c-1.86-1.9-4.53-2.85-8.02-2.85h-4.91v21.37h4.91
			C1638.76-33.03,1641.44-33.96,1643.29-35.81z"/>
		<path d="M1657.91-57.29v27.18h-3.55v-27.18H1657.91z"/>
		<path d="M1664.43-50.87c1.2-2.12,2.83-3.78,4.89-4.97c2.07-1.2,4.36-1.79,6.88-1.79c2.96,0,5.55,0.72,7.76,2.15
			c2.21,1.43,3.82,3.46,4.84,6.08h-4.25c-0.75-1.64-1.84-2.9-3.26-3.78c-1.42-0.88-3.11-1.33-5.09-1.33c-1.9,0-3.6,0.44-5.11,1.33
			c-1.51,0.88-2.69,2.14-3.55,3.76c-0.86,1.62-1.29,3.53-1.29,5.71c0,2.16,0.43,4.05,1.29,5.67c0.86,1.62,2.04,2.88,3.55,3.76
			c1.51,0.88,3.21,1.33,5.11,1.33c1.98,0,3.67-0.43,5.09-1.31c1.42-0.87,2.5-2.13,3.26-3.76h4.25c-1.01,2.6-2.63,4.61-4.84,6.03
			c-2.21,1.42-4.8,2.13-7.76,2.13c-2.52,0-4.82-0.59-6.88-1.78c-2.07-1.18-3.7-2.83-4.89-4.93c-1.2-2.11-1.79-4.48-1.79-7.14
			S1663.23-48.75,1664.43-50.87z"/>
		<path d="M1710.13-36.15h-11.86l-2.18,6.04h-3.74l9.83-27.03h4.09l9.79,27.03h-3.74L1710.13-36.15z M1709.12-39.03l-4.91-13.73
			l-4.91,13.73H1709.12z"/>
		<path d="M1737.08-57.29v2.89h-7.41v24.3h-3.55v-24.3h-7.45v-2.89H1737.08z"/>
		<path d="M1746.87-31.6c-2.08-1.18-3.72-2.83-4.93-4.95c-1.21-2.12-1.81-4.5-1.81-7.16s0.61-5.04,1.81-7.16s2.85-3.77,4.93-4.95
			c2.08-1.18,4.38-1.77,6.9-1.77c2.55,0,4.86,0.59,6.94,1.77c2.08,1.18,3.72,2.83,4.91,4.93c1.2,2.11,1.79,4.5,1.79,7.18
			c0,2.68-0.6,5.07-1.79,7.18c-1.2,2.11-2.83,3.75-4.91,4.93c-2.08,1.18-4.39,1.78-6.94,1.78
			C1751.25-29.83,1748.95-30.42,1746.87-31.6z M1758.9-34.24c1.52-0.88,2.72-2.15,3.59-3.78s1.31-3.54,1.31-5.69
			c0-2.18-0.44-4.09-1.31-5.71s-2.06-2.88-3.57-3.76c-1.51-0.88-3.22-1.33-5.15-1.33s-3.64,0.44-5.15,1.33
			c-1.51,0.88-2.7,2.14-3.57,3.76s-1.31,3.53-1.31,5.71c0,2.16,0.43,4.06,1.31,5.69s2.07,2.9,3.59,3.78s3.23,1.33,5.13,1.33
			S1757.38-33.35,1758.9-34.24z"/>
		<path d="M1786.42-30.1l-6.47-11.12h-4.29v11.12h-3.55v-27.18h8.78c2.05,0,3.79,0.35,5.21,1.05s2.48,1.65,3.18,2.85
			c0.7,1.2,1.05,2.56,1.05,4.1c0,1.87-0.54,3.52-1.62,4.95s-2.7,2.38-4.86,2.85l6.83,11.39H1786.42z M1775.65-44.06h5.23
			c1.92,0,3.37-0.47,4.33-1.42c0.96-0.95,1.44-2.22,1.44-3.8c0-1.61-0.47-2.86-1.42-3.74s-2.4-1.33-4.35-1.33h-5.23V-44.06z"/>
	</g>
	<g>
		<path class="st6" d="M1669.47-196.97c37.54,0,67.97,30.43,67.97,67.97"/>
		<rect x="1627.59" y="-170.88" class="st7" width="41.88" height="41.88"/>
		<rect x="1627.59" y="-265.76" class="st7" width="41.88" height="41.88"/>
		<path class="st8" d="M1737.44-264.93c0,37.54-30.43,67.97-67.97,67.97"/>
		<path class="st2" d="M1627.59-170.88h41.88v-52.84C1646.34-223.72,1627.59-204.97,1627.59-170.88z"/>
	</g>
</g>
<g>
	<path class="st2" d="M403.27,0c21.47,0,38.88,17.41,38.88,38.88s-17.41,38.88-38.88,38.88"/>
	<path class="st5" d="M481.03,0c-21.47,0-38.88,17.41-38.88,38.88s17.41,38.88,38.88,38.88"/>
	<path class="st5" d="M403.27,159.59c0-21.47,17.41-38.88,38.88-38.88s38.88,17.41,38.88,38.88"/>
	<path class="st3" d="M403.27,81.83c0,21.47,17.41,38.88,38.88,38.88s38.88-17.41,38.88-38.88"/>
	<path class="st9" d="M484.52,81.83c21.47,0,38.88,17.41,38.88,38.88s-17.41,38.88-38.88,38.88"/>
	<path class="st10" d="M562.28,81.83c-21.47,0-38.88,17.41-38.88,38.88s17.41,38.88,38.88,38.88"/>
	<path class="st10" d="M484.52,77.76c0-21.47,17.41-38.88,38.88-38.88c21.47,0,38.88,17.41,38.88,38.88"/>
	<path class="st11" d="M484.52,0c0,21.47,17.41,38.88,38.88,38.88c21.47,0,38.88-17.41,38.88-38.88"/>
</g>
</svg>
