<svg id="SvgjsSvg1014" width="288" height="288" xmlns="http://www.w3.org/2000/svg" version="1.1" xmlns:xlink="http://www.w3.org/1999/xlink" xmlns:svgjs="http://svgjs.com/svgjs"><defs id="SvgjsDefs1015"></defs><g id="SvgjsG1016"><svg xmlns="http://www.w3.org/2000/svg" viewBox="0 0 26 26" width="288" height="288"><g fill="#ffffff" transform="translate(5 -1031.863)" class="colorfff svgShape"><circle cx="657.054" cy="437.094" r="15.268" fill="#83aed2" fill-rule="evenodd" transform="translate(-551.456 672.694) scale(.85146)" class="color3a6c87 svgShape"></circle><path fill="#2f4b6c" style="line-height:normal;text-indent:0;text-align:start;text-decoration-line:none;text-decoration-style:solid;text-decoration-color:#000;text-transform:none;block-progression:tb;isolation:auto;mix-blend-mode:normal" d="M14.584 25.893a13 13 0 0 0 .998-.153 13 13 0 0 0 1.26-.32 13 13 0 0 0 1.22-.445 13 13 0 0 0 1.17-.567 13 13 0 0 0 1.108-.68 13 13 0 0 0 1.035-.785 13 13 0 0 0 .951-.886 13 13 0 0 0 .858-.977 13 13 0 0 0 .755-1.057 13 13 0 0 0 .647-1.127 13 13 0 0 0 .531-1.185 13 13 0 0 0 .408-1.234 13 13 0 0 0 .286-1.268 13 13 0 0 0 .076-.63l-7.233-7.233A7.974 7.974 0 0 0 13 5c-4.412 0-8 3.588-8 8 0 2.206.897 4.206 2.346 5.654l7.238 7.239z" color="#000" font-family="sans-serif" font-weight="400" transform="translate(-5 1031.863)" class="color2f4b6c svgShape"></path><path style="line-height:normal;text-indent:0;text-align:start;text-decoration-line:none;text-decoration-style:solid;text-decoration-color:#000;text-transform:none;block-progression:tb;isolation:auto;mix-blend-mode:normal" d="M8 0C3.588 0 0 3.588 0 8s3.588 8 8 8 8-3.588 8-8-3.588-8-8-8Zm0 1c.696 0 1.366.103 2 .291v4.467L5.652 1.41A6.987 6.987 0 0 1 8 1Zm3 .68a7.008 7.008 0 0 1 3.16 2.988L11 7.83V1.68Zm-6.334.158L7.828 5H1.68a7.01 7.01 0 0 1 2.986-3.162Zm9.924 3.814c.26.735.41 1.523.41 2.348 0 .696-.105 1.366-.293 2h-4.463l4.346-4.348zM1.293 6h4.465l-4.346 4.348A6.98 6.98 0 0 1 1 8c0-.696.105-1.366.293-2ZM8 6c.54 0 1.024.211 1.383.555l.031.03.002-.001c.36.361.584.861.584 1.416 0 .55-.22 1.044-.574 1.404l-.012.012C9.053 9.776 8.554 10 8 10a1.996 1.996 0 0 1-2-2c0-.54.213-1.026.557-1.385l.029-.03-.002-.001v-.002C6.945 6.221 7.444 6 8 6ZM5 8.172v6.146a7.007 7.007 0 0 1-3.158-2.986L5 8.172Zm1 2.072 4.346 4.346A6.99 6.99 0 0 1 8 15a7.015 7.015 0 0 1-2-.293v-4.463zM8.17 11h6.148a7.006 7.006 0 0 1-2.988 3.16L8.17 11Z" color="#000" font-family="sans-serif" font-weight="400" overflow="visible" transform="translate(0 1036.863)" fill="#ffffff" class="color000 svgShape"></path></g></svg></g></svg>