<svg id="SvgjsSvg1166" width="288" height="288" xmlns="http://www.w3.org/2000/svg" version="1.1" xmlns:xlink="http://www.w3.org/1999/xlink" xmlns:svgjs="http://svgjs.com/svgjs"><defs id="SvgjsDefs1167"></defs><g id="SvgjsG1168"><svg xmlns="http://www.w3.org/2000/svg" viewBox="0 0 48 48" width="288" height="288"><g fill="#ffffff" transform="translate(8 -1011.362)" class="colorfff svgShape"><circle cx="16" cy="1035.362" r="24" fill="#83aed2" class="color1d67b1 svgShape"></circle><path fill="#2f506c" style="line-height:normal;text-indent:0;text-align:start;text-decoration-line:none;text-transform:none;block-progression:tb" d="M22.963 47.963A24 24 0 0 0 24 48a24 24 0 0 0 2.396-.12 24 24 0 0 0 2.372-.359 24 24 0 0 0 2.324-.593 24 24 0 0 0 2.254-.823 24 24 0 0 0 2.16-1.042 24 24 0 0 0 2.045-1.254 24 24 0 0 0 1.91-1.454 24 24 0 0 0 1.756-1.634 24 24 0 0 0 1.584-1.803 24 24 0 0 0 1.394-1.951 24 24 0 0 0 1.194-2.08 24 24 0 0 0 .98-2.19 24 24 0 0 0 .756-2.277 24 24 0 0 0 .525-2.34 24 24 0 0 0 .29-2.383A24 24 0 0 0 48 24a24 24 0 0 0-.105-2.105L39 13h-1v1l-1-1h-1v1l-1-1h-1v1l-1-1H9v2l1 1H9v18l13.963 13.963z" color="#000" font-family="sans-serif" font-weight="400" transform="translate(-8 1011.362)" class="color154082 svgShape"></path><path style="line-height:normal;text-indent:0;text-align:start;text-decoration-line:none;text-transform:none;block-progression:tb" d="M1 1024.362h24v2H1zm25 0h1v2h-1zm2 0h1v2h-1zm2 0h1v2h-1zm-29 3h30v18H17.238l.578-1H30v-16H2v16h12.35l-.577 1H1zm2 2h14.502a7.448 7.448 0 0 0-3.709 7.37l-2.303-1.743.002-.04c0-.524-.476-1-1-1-.523 0-1 .476-1 1 0 .061.006.124.018.185l-3.719 3.715a1.01 1.01 0 0 0-.322-.055c-.374 0-.739.23-.9.566H3Zm18.406 0a6.47 6.47 0 0 1 3.076.871 6.493 6.493 0 0 1 2.38 8.88 6.493 6.493 0 0 1-8.88 2.378 6.494 6.494 0 0 1-2.38-8.879 6.498 6.498 0 0 1 5.804-3.25zm3.569 0H29v5h-.43a7.474 7.474 0 0 0-3.588-4.996h-.007zm-3.846 1.498a5.02 5.02 0 0 0-4.236 2.502 4.932 4.932 0 0 0-.633 2.057 1.006 1.006 0 0 0-.014.512c.029 1.705.908 3.36 2.486 4.271 2.388 1.378 5.46.547 6.838-1.84a4.935 4.935 0 0 0 .647-2.875 1.004 1.004 0 0 0-.076-.447c-.245-1.412-1.071-2.714-2.409-3.486a5.001 5.001 0 0 0-1.877-.657 4.915 4.915 0 0 0-.726-.037zm.023 1c.194 0 .387.01.58.03.501.061 1.01.247 1.5.53a3.998 3.998 0 0 1 1.63 1.776l-2.616-1.08a2.25 2.25 0 0 0-1.767-.885c-.89 0-1.75.593-2.067 1.424l-.816.566c.054-.12.094-.242.162-.36a4.022 4.022 0 0 1 3.394-2.001zm7.559 3.502H29v8h-3v-1.723a7.445 7.445 0 0 0 1.727-2.027 7.46 7.46 0 0 0 .984-4.25zm-6.227.016 2.354.973a.985.985 0 0 0 .36.072c-.07.491-.228.98-.493 1.44a4.01 4.01 0 0 1-3.205 1.997v-3.45c.429-.225.78-.593.984-1.032zm-3.718.467c.2.244.451.445.734.584v3.025c-.088-.043-.181-.069-.268-.119a3.995 3.995 0 0 1-1.906-2.642c.173-.018.34-.082.48-.184zm-7.766.027 3 2.268v5.22h-3zm-1 .188v7.302H6v-2.72a1.02 1.02 0 0 0 .451-1.036zm5 3.959c.314.471.683.91 1.105 1.306L15 1043.24Zm-12 .341h1.646c.091.131.213.24.354.315v2.687H3zm13.887 1.612c.19.135.388.267.595.386.086.05.174.087.26.133l-3.808 6.594a.49.49 0 0 1-.684.184.489.489 0 0 1-.182-.684zm8.113.365v1.025h-6.607l.267-.463a7.511 7.511 0 0 0 6.34-.562z" color="#000" font-family="sans-serif" font-weight="400" overflow="visible" fill="#ffffff" class="color000 svgShape"></path></g></svg></g></svg>