<svg id="SvgjsSvg1142" width="288" height="288" xmlns="http://www.w3.org/2000/svg" version="1.1" xmlns:xlink="http://www.w3.org/1999/xlink" xmlns:svgjs="http://svgjs.com/svgjs"><defs id="SvgjsDefs1143"></defs><g id="SvgjsG1144"><svg xmlns="http://www.w3.org/2000/svg" viewBox="0 0 26 26" width="288" height="288"><g transform="translate(0 -1026.362)" fill="#000000" class="color000 svgShape"><circle cx="13" cy="1039.362" r="13" fill="#83aed2" fill-rule="evenodd" class="colorffa40b svgShape"></circle><path style="line-height:normal;text-indent:0;text-align:start;text-decoration-line:none;text-decoration-style:solid;text-decoration-color:#000;text-transform:none;block-progression:tb;isolation:auto;mix-blend-mode:normal" fill="#2f506c" d="M16.514 25.514a13 13 0 0 0 1.197-.397 13 13 0 0 0 1.185-.531 13 13 0 0 0 1.127-.647 13 13 0 0 0 1.057-.755 13 13 0 0 0 .977-.858 13 13 0 0 0 .886-.951 13 13 0 0 0 .786-1.035 13 13 0 0 0 .68-1.108 13 13 0 0 0 .566-1.17 13 13 0 0 0 .445-1.22 13 13 0 0 0 .303-1.192l-9.19-9.19A4.985 4.985 0 0 0 13 4.995c-2.755 0-5 2.245-5 5 0 1.9.836 3.204 1.607 4.186.386.49.755.911 1.008 1.29.254.38.385.697.385 1.024V20l5.514 5.514z" color="#000" font-family="sans-serif" font-weight="400" transform="translate(0 1026.362)" class="colorff7712 svgShape"></path><path style="line-height:normal;text-indent:0;text-align:start;text-decoration-line:none;text-decoration-style:solid;text-decoration-color:#000;text-transform:none;block-progression:tb;isolation:auto;mix-blend-mode:normal" fill="#ffffff" d="M8 1C5.245 1 3 3.244 3 6c0 1.9.836 3.203 1.607 4.186.386.49.755.91 1.008 1.29.254.38.385.697.385 1.024V16.006h4V12.5c0-.654.623-1.34 1.395-2.326C12.165 9.188 13 7.887 13 6c0-2.756-2.245-5-5-5Zm0 1c2.215 0 4 1.785 4 4 0 1.6-.666 2.626-1.395 3.557C9.877 10.487 9 11.305 9 12.5v.5h-.5V8H9V7H7v1h.5v5H7v-.5c0-.597-.244-1.115-.553-1.578-.309-.463-.69-.89-1.054-1.354C4.664 8.642 4 7.617 4 6c0-2.215 1.785-4 4-4ZM7 14h2v1.006H7V14Z" color="#000" font-family="sans-serif" font-weight="400" overflow="visible" transform="translate(5 1030.356)" class="colorfff svgShape"></path></g></svg></g></svg>