<svg xmlns="http://www.w3.org/2000/svg" viewBox="0 0 48 48" id="Law"><g transform="translate(0 -1004.362)" fill="#fbd533" class="color000000 svgShape"><circle cx="24" cy="1028.362" r="24" fill="#83aed2" class="color3a6c87 svgShape"></circle><path style="line-height:normal;text-indent:0;text-align:start;text-decoration-line:none;text-decoration-style:solid;text-decoration-color:#000;text-transform:none;block-progression:tb;isolation:auto;mix-blend-mode:normal" fill="#2f506c" d="M23.963 8.998a.5.5 0 0 0-.365.2l-1.5 2a.5.5 0 0 0-.1.298v.582a6.588 6.588 0 0 0-2.797 1.926H15.59a.5.5 0 0 0-.174 0h-.031v.012a.5.5 0 0 0-.387.494 1.498 1.498 0 0 1-1.5 1.5l-1.5-1.5a.5.5 0 0 0-.508-.508.5.5 0 0 0-.492.508c0 .186.027.365.068.54.015.063.036.12.055.18a2.427 2.427 0 0 0 .225.506c.062.107.133.207.21.303.038.046.072.093.112.137.021.023.038.05.06.072l.323.322-3.022 8.633a.5.5 0 0 0-.027.26.5.5 0 0 0-.004.047c0 .273.034.54.082.804a4.493 4.493 0 0 0 .264.922l.002.004c.1.243.23.47.37.692.032.049.063.097.097.144.15.217.314.424.501.611l.002.004 7.313 7.313h-1.131a.5.5 0 0 0-.5.5v2a.5.5 0 0 0 .5.5l8.945 8.945a24 24 0 0 0 22.485-22.51l-10.93-10.93a.5.5 0 0 0-.492-.507.5.5 0 0 0-.508.508c0 .536-.285 1.03-.75 1.299-.2.115-.422.171-.644.187l-1.622-1.621a.5.5 0 0 0-.355-.355h-.002l-.012-.014h-.033a.5.5 0 0 0-.174 0h-3.2l-4.808-4.807a.5.5 0 0 0-.386-.201.5.5 0 0 0-.05 0zm1.935 2.201 1.881 1.881-.082-.059c-.094-.069-.187-.139-.285-.203a6.614 6.614 0 0 0-.244-.15l-1.17-1.17a.5.5 0 0 0-.1-.299zm-12.4 2.805a.5.5 0 0 0-.5.5.5.5 0 0 0 .5.5.5.5 0 0 0 .5-.5.5.5 0 0 0-.5-.5zm21 0a.5.5 0 0 0-.5.5.5.5 0 0 0 .5.5.5.5 0 0 0 .5-.5.5.5 0 0 0-.5-.5zm-1.508.412L34.574 16c-.025.001-.05.01-.076.01l-1.5-1.5a.5.5 0 0 0-.008-.094zm-19.168 2.537.002.002c-.108.014-.215.033-.324.033.108 0 .215-.02.322-.035z" color="#000" font-family="sans-serif" font-weight="400" transform="translate(0 1004.362)" class="color2f4b6c svgShape"></path><path style="line-height:normal;text-indent:0;text-align:start;text-decoration-line:none;text-decoration-style:solid;text-decoration-color:#000;text-transform:none;block-progression:tb;isolation:auto;mix-blend-mode:normal" fill="#ffffff" d="M24.012 1013.361a.5.5 0 0 0-.049 0 .5.5 0 0 0-.365.2l-1.5 2a.5.5 0 0 0-.1.298v.582a6.589 6.589 0 0 0-2.797 1.926H15.59a.5.5 0 0 0-.174 0h-.031v.01a.5.5 0 0 0-.387.494 1.498 1.498 0 0 1-2.25 1.299 1.498 1.498 0 0 1-.75-1.299.5.5 0 0 0-.508-.508.5.5 0 0 0-.492.508c0 .814.41 1.556 1.067 2.022l-3.036 8.671a.5.5 0 0 0-.027.26.5.5 0 0 0-.004.047 4.5 4.5 0 0 0 9 0 .5.5 0 0 0-.002-.037.5.5 0 0 0-.025-.27l-3.035-8.673c.515-.368.869-.906.996-1.52h6.066v1.493a.5.5 0 0 0 .5.5h.004v17.125c-1.562.25-2.915.897-3.742 1.877h-2.262a.5.5 0 0 0-.5.5v2a.5.5 0 0 0 .5.5h15.006a.5.5 0 0 0 .5-.5v-2a.5.5 0 0 0-.5-.5h-2.256c-.832-.984-2.19-1.633-3.746-1.883v-17.12a.5.5 0 0 0 .496-.5v-1.492h6.067c.127.616.48 1.156.998 1.524l-3.034 8.67a.5.5 0 0 0-.027.26.5.5 0 0 0-.004.047 4.5 4.5 0 0 0 9 0 .5.5 0 0 0-.002-.037.5.5 0 0 0-.025-.27l-3.035-8.672a2.489 2.489 0 0 0 1.062-2.021.5.5 0 0 0-.492-.508.5.5 0 0 0-.508.508 1.498 1.498 0 0 1-2.25 1.299 1.498 1.498 0 0 1-.75-1.3.5.5 0 0 0-.385-.493v-.01h-.033a.5.5 0 0 0-.174 0h-3.623a6.65 6.65 0 0 0-2.785-1.897v-.611a.5.5 0 0 0-.1-.299l-1.5-2a.5.5 0 0 0-.386-.201zm-.014 1.334 1 1.334v4.332h-2v-4.332l1-1.334zm-2 2.826v.848h-1.377a5.57 5.57 0 0 1 1.377-.848zm4 .023c.489.21.942.487 1.354.825h-1.354v-.825zm-12.5.823a.5.5 0 0 0-.5.5.5.5 0 0 0 .5.5.5.5 0 0 0 .5-.5.5.5 0 0 0-.5-.5zm21 0a.5.5 0 0 0-.5.5.5.5 0 0 0 .5.5.5.5 0 0 0 .5-.5.5.5 0 0 0-.5-.5zm-21.517 2.93c.343.072.696.072 1.039 0l2.824 8.07H10.156l2.825-8.07zm21 0c.343.072.697.073 1.04 0l2.823 8.068H31.156l2.825-8.069zm-10.479.06h1v17.002h-1v-17.002zm-13.37 9.008h6.731c-.158 1.041-.686 1.995-1.615 2.532a3.498 3.498 0 0 1-3.5 0c-.929-.537-1.456-1.49-1.615-2.532zm21 0h6.731c-.158 1.041-.686 1.995-1.615 2.532a3.498 3.498 0 0 1-3.5 0c-.929-.537-1.456-1.49-1.615-2.532zm-7.226 8.994c1.495-.016 2.89.384 3.834 1h-7.468c.902-.587 2.207-.984 3.634-1zm-6.908 2h14.006v1H16.998v-1z" color="#000" font-family="sans-serif" font-weight="400" overflow="visible" class="colorffffff svgShape"></path></g></svg>