<svg id="SvgjsSvg1014" width="288" height="288" xmlns="http://www.w3.org/2000/svg" version="1.1" xmlns:xlink="http://www.w3.org/1999/xlink" xmlns:svgjs="http://svgjs.com/svgjs"><defs id="SvgjsDefs1015"></defs><g id="SvgjsG1016"><svg xmlns="http://www.w3.org/2000/svg" viewBox="0 0 26 26" width="288" height="288"><g fill="#ffffff" transform="translate(5 -1031.362)" class="colorfff svgShape"><circle cx="8" cy="1044.362" r="13" fill="#83aed2" class="color3a6c87 svgShape"></circle><path style="line-height:normal;text-indent:0;text-align:start;text-decoration-line:none;text-decoration-style:solid;text-decoration-color:#000;text-transform:none;block-progression:tb;isolation:auto;mix-blend-mode:normal" fill="#2f506c" d="M16.803 25.418a13 13 0 0 0 .908-.3 13 13 0 0 0 1.185-.532 13 13 0 0 0 1.127-.647 13 13 0 0 0 1.057-.755 13 13 0 0 0 .977-.858 13 13 0 0 0 .886-.951 13 13 0 0 0 .786-1.035 13 13 0 0 0 .68-1.108 13 13 0 0 0 .566-1.17 13 13 0 0 0 .445-1.22 13 13 0 0 0 .32-1.26 13 13 0 0 0 .074-.494l-8.058-8.059-.018-.017c-.089-.09-.185-.172-.279-.256-.07-.062-.135-.128-.207-.188-.001 0-.003 0-.004-.002-.112-.092-.23-.174-.348-.26-.06-.043-.117-.092-.18-.134a6.893 6.893 0 0 0-.562-.342l-.021-.01a6.83 6.83 0 0 0-1.21-.511h-.001A6.815 6.815 0 0 0 12.889 5c-3.782 0-6.86 3.071-6.86 6.848 0 .229.011.454.032.675.006.073.02.143.029.215.018.149.037.299.064.444.018.091.044.179.065.27.027.114.05.23.082.343.03.102.069.2.103.3.036.105.069.21.11.311.036.09.077.175.117.262.045.1.088.2.139.297.047.092.102.18.154.27.053.091.106.184.164.273.055.085.116.166.176.248.06.084.12.167.185.248.067.084.14.164.211.244.066.074.13.148.2.219.02.02.036.044.056.064l8.887 8.887z" color="#000" font-family="sans-serif" font-weight="400" transform="translate(-5 1031.362)" class="color2f4b6c svgShape"></path><path d="M7.86 0C4.077 0 1 3.071 1 6.848c0 3.611 2.6 6.33 6.434 6.756.008.185.01.443.005.707a35.182 35.182 0 0 1-.043 1.125c0 .17.127.383.258.466a.597.597 0 0 0 .319.098c.167.01.294-.024.44-.07.289-.092.625-.264.982-.526.661-.486 1.344-1.339 1.677-2.52 1.422-.568 2.39-1.402 2.93-2.429.57-1.086.715-2.324.715-3.607C14.717 3.07 11.64 0 7.859 0Zm0 1a5.845 5.845 0 0 1 5.857 5.848c0 1.206-.144 2.275-.6 3.142-.455.867-1.212 1.571-2.596 2.073a.5.5 0 0 0-.318.363 3.634 3.634 0 0 1-1.4 2.174c-.152.111-.253.142-.381.207.008-.196.013-.237.017-.477.006-.286.007-.572-.005-.807a2.244 2.244 0 0 0-.036-.324c-.01-.053-.02-.107-.06-.191a.517.517 0 0 0-.111-.158.552.552 0 0 0-.336-.153C4.24 12.462 2 10.116 2 6.847A5.846 5.846 0 0 1 7.86 1Zm3.786 2.646L9 6.293l-.646-.942L8 5.4v.004L6.793 5.5 9 7.707 12.207 4.5h.027zM4 4v6h8V6.969h-1V9H5V5h3.969V4z" color="#000" font-family="sans-serif" font-weight="400" overflow="visible" transform="translate(.03 1036.361)" style="line-height:normal;text-indent:0;text-align:start;text-decoration-line:none;text-decoration-style:solid;text-decoration-color:#000;text-transform:none;block-progression:tb;isolation:auto;mix-blend-mode:normal" fill="#ffffff" class="color000 svgShape"></path></g></svg></g></svg>